<?xml version="1.0" encoding="utf-8"?>
<!-- Generator: Adobe Illustrator 21.1.0, SVG Export Plug-In . SVG Version: 6.00 Build 0)  -->
<svg version="1.1" id="Layer_1" xmlns="http://www.w3.org/2000/svg" xmlns:xlink="http://www.w3.org/1999/xlink" x="0px" y="0px"
	 width="420px" height="400px" viewBox="0 0 420 400" style="enable-background:new 0 0 420 400;" xml:space="preserve">
<style type="text/css">
	.st0{fill:#ACBBED;}
</style>
<g>
	<path class="st0" d="M133,40H2c-1.1,0-2-0.9-2-2V2c0-1.1,0.9-2,2-2h131c1.1,0,2,0.9,2,2v36C135,39.1,134.1,40,133,40z"/>
</g>
<g>
	<g>
		<path class="st0" d="M178.5,40H142c-1.1,0-2-0.9-2-2V2c0-1.1,0.9-2,2-2h36.5c1.1,0,2,0.9,2,2v36C180.5,39.1,179.6,40,178.5,40z"/>
	</g>
	<g>
		<path class="st0" d="M273,40h-85.5c-1.1,0-2-0.9-2-2V2c0-1.1,0.9-2,2-2H273c1.1,0,2,0.9,2,2v36C275,39.1,274.1,40,273,40z"/>
	</g>
</g>
<g>
	<g>
		<path class="st0" d="M376.5,0L413,0c1.1,0,2,0.9,2,2v36c0,1.1-0.9,2-2,2h-36.5c-1.1,0-2-0.9-2-2V2C374.5,0.9,375.4,0,376.5,0z"/>
	</g>
	<g>
		<path class="st0" d="M282,0l85.5,0c1.1,0,2,0.9,2,2v36c0,1.1-0.9,2-2,2H282c-1.1,0-2-0.9-2-2V2C280,0.9,280.9,0,282,0z"/>
	</g>
</g>
<g>
	<path class="st0" d="M63,80H2c-1.1,0-2-0.9-2-2V42c0-1.1,0.9-2,2-2h61c1.1,0,2,0.9,2,2v36C65,79.1,64.1,80,63,80z"/>
</g>
<g>
	<path class="st0" d="M133,80H72c-1.1,0-2-0.9-2-2V42c0-1.1,0.9-2,2-2h61c1.1,0,2,0.9,2,2v36C135,79.1,134.1,80,133,80z"/>
</g>
<g>
	<path class="st0" d="M179.7,80H142c-1.1,0-2-0.9-2-2V42c0-1.1,0.9-2,2-2h37.7c1.1,0,2,0.9,2,2v36C181.7,79.1,180.8,80,179.7,80z"/>
</g>
<g>
	<path class="st0" d="M226.7,80H189c-1.1,0-2-0.9-2-2V42c0-1.1,0.9-2,2-2h37.7c1.1,0,2,0.9,2,2v36C228.7,79.1,227.8,80,226.7,80z"/>
</g>
<g>
	<path class="st0" d="M273,80h-37.7c-1.1,0-2-0.9-2-2V42c0-1.1,0.9-2,2-2H273c1.1,0,2,0.9,2,2v36C275,79.1,274.1,80,273,80z"/>
</g>
<g>
	<path class="st0" d="M308,80h-26c-1.1,0-2-0.9-2-2V42c0-1.1,0.9-2,2-2h26c1.1,0,2,0.9,2,2v36C310,79.1,309.1,80,308,80z"/>
</g>
<g>
	<path class="st0" d="M343,80h-26c-1.1,0-2-0.9-2-2V42c0-1.1,0.9-2,2-2h26c1.1,0,2,0.9,2,2v36C345,79.1,344.1,80,343,80z"/>
</g>
<g>
	<path class="st0" d="M378,80h-26c-1.1,0-2-0.9-2-2V42c0-1.1,0.9-2,2-2h26c1.1,0,2,0.9,2,2v36C380,79.1,379.1,80,378,80z"/>
</g>
<g>
	<path class="st0" d="M413,80h-26c-1.1,0-2-0.9-2-2V42c0-1.1,0.9-2,2-2h26c1.1,0,2,0.9,2,2v36C415,79.1,414.1,80,413,80z"/>
</g>
<g>
	<path class="st0" d="M21,120H2c-1.1,0-2-0.9-2-2V82c0-1.1,0.9-2,2-2h19c1.1,0,2,0.9,2,2v36C23,119.1,22.1,120,21,120z"/>
</g>
<g>
	<path class="st0" d="M49,120H30c-1.1,0-2-0.9-2-2V82c0-1.1,0.9-2,2-2h19c1.1,0,2,0.9,2,2v36C51,119.1,50.1,120,49,120z"/>
</g>
<g>
	<path class="st0" d="M77,120H58c-1.1,0-2-0.9-2-2V82c0-1.1,0.9-2,2-2h19c1.1,0,2,0.9,2,2v36C79,119.1,78.1,120,77,120z"/>
</g>
<g>
	<path class="st0" d="M105,120H86c-1.1,0-2-0.9-2-2V82c0-1.1,0.9-2,2-2h19c1.1,0,2,0.9,2,2v36C107,119.1,106.1,120,105,120z"/>
</g>
<g>
	<path class="st0" d="M133,120h-19c-1.1,0-2-0.9-2-2V82c0-1.1,0.9-2,2-2h19c1.1,0,2,0.9,2,2v36C135,119.1,134.1,120,133,120z"/>
</g>
<g>
	<path class="st0" d="M156.3,120H142c-1.1,0-2-0.9-2-2V82c0-1.1,0.9-2,2-2h14.3c1.1,0,2,0.9,2,2v36C158.3,119.1,157.4,120,156.3,120
		z"/>
</g>
<g>
	<path class="st0" d="M180.3,120H166c-1.1,0-2-0.9-2-2V82c0-1.1,0.9-2,2-2h14.3c1.1,0,2,0.9,2,2v36C182.3,119.1,181.4,120,180.3,120
		z"/>
</g>
<g>
	<path class="st0" d="M203.3,120H189c-1.1,0-2-0.9-2-2V82c0-1.1,0.9-2,2-2h14.3c1.1,0,2,0.9,2,2v36C205.3,119.1,204.4,120,203.3,120
		z"/>
</g>
<g>
	<path class="st0" d="M227.3,120H213c-1.1,0-2-0.9-2-2V82c0-1.1,0.9-2,2-2h14.3c1.1,0,2,0.9,2,2v36C229.3,119.1,228.4,120,227.3,120
		z"/>
</g>
<g>
	<path class="st0" d="M250.3,120H236c-1.1,0-2-0.9-2-2V82c0-1.1,0.9-2,2-2h14.3c1.1,0,2,0.9,2,2v36C252.3,119.1,251.4,120,250.3,120
		z"/>
</g>
<g>
	<path class="st0" d="M273,120h-14.3c-1.1,0-2-0.9-2-2V82c0-1.1,0.9-2,2-2H273c1.1,0,2,0.9,2,2v36C275,119.1,274.1,120,273,120z"/>
</g>
</svg>
