<?xml version="1.0" encoding="utf-8"?>
<!-- Generator: Adobe Illustrator 21.1.0, SVG Export Plug-In . SVG Version: 6.00 Build 0)  -->
<svg version="1.1" id="Layer_1" xmlns="http://www.w3.org/2000/svg" xmlns:xlink="http://www.w3.org/1999/xlink" x="0px" y="0px"
	 width="163px" height="40px" viewBox="0 0 163 40" style="enable-background:new 0 0 163 40;" xml:space="preserve">
<style type="text/css">
	.st0{fill:#7891F9;}
	.st1{fill:#6480F9;}
	.st2{fill:#5B79E8;}
	.st3{fill:#3BC5B6;}
	.st4{fill:#0BA88E;}
	.st5{fill:#54D3BD;}
	.st6{fill:#91ACF9;}
	.st7{fill:#FFFFFF;}
</style>
<polygon class="st0" points="0,32.5 20.1,40 20.1,33 0,25.4 "/>
<polygon class="st1" points="40.3,32.5 20.1,40 20.1,33 40.3,25.4 "/>
<polygon class="st2" points="20.1,17.8 0,25.4 20.1,33 40.3,25.4 "/>
<polygon class="st3" points="0,21.2 20.1,28.7 20.1,21.5 0,14.1 "/>
<polygon class="st4" points="40.3,21.2 20.1,28.7 20.1,21.5 40.3,14.1 "/>
<polygon class="st5" points="20.1,6.5 0,14.1 20.1,21.5 40.3,14.1 "/>
<polygon class="st0" points="0,9.8 7.4,12.6 7.4,5.5 0,2.8 "/>
<polygon class="st1" points="14.9,9.8 7.4,12.6 7.4,5.5 14.9,2.8 "/>
<polygon class="st6" points="7.4,0 0,2.8 7.4,5.5 14.9,2.8 "/>
<g>
	<path class="st7" d="M57.4,22.7c1.9,0.7,3.4,2.6,3.4,4.6c0,2.7-2.2,4.9-5.4,4.9h-8.2V14.1h6.7c3.4,0,6.1,1.4,6.1,4.5
		C60.1,20.3,59,21.8,57.4,22.7z M54.3,16.8h-3.5v4.8h3.5c1.4,0,2.5-1,2.5-2.4C56.7,17.8,55.5,16.8,54.3,16.8z M54.5,29.4
		c1.4,0,2.6-1.1,2.6-2.6c0-1.4-1.2-2.6-2.6-2.6h-3.8v5.2L54.5,29.4L54.5,29.4z"/>
	<path class="st7" d="M66.3,26.6c0,1.8,0.9,3,2.4,3c1.1,0,3-0.8,3.9-2.6v-7.8h3.1v13h-3v-1.9c-1.1,1.4-3,2.2-4.8,2.2
		c-2.6,0-4.6-1.8-4.6-5.2v-8.1h3.1L66.3,26.6L66.3,26.6z"/>
	<path class="st7" d="M80.6,14.1c1,0,1.8,0.8,1.8,1.8c0,1-0.8,1.8-1.8,1.8s-1.8-0.7-1.8-1.8C78.9,14.9,79.7,14.1,80.6,14.1z
		 M79.2,19.2h3.1v13h-3.1V19.2z"/>
	<path class="st7" d="M88.6,13.8v18.5h-3.1V13.8H88.6z"/>
	<path class="st7" d="M101.1,32.2v-1.7c-1,1.3-2.5,2.1-4.2,2.1c-3.8,0-6.3-3.1-6.3-6.9s2.6-6.9,6.3-6.9c1.6,0,3.2,0.8,4.2,2.1v-7
		h3.1v18.5h-3.1C101.1,32.3,101.1,32.2,101.1,32.2z M101.1,28.2v-4.8c-0.7-1-1.8-1.6-3.2-1.6c-2.2,0-4,1.8-4,4s1.8,4.1,4,4.1
		C99.2,29.8,100.3,29.1,101.1,28.2z"/>
	<path class="st7" d="M119.3,26.3h-10.1c0,2.1,1.4,3.8,4.2,3.8c1.4,0,3-0.5,3.9-1.3l1.2,1.8c-1.4,1.2-3.4,1.8-5.4,1.8
		c-3.8,0-7-2.9-7-6.6c0-3.9,3-7,6.7-7c4.2,0,6.6,2.8,6.6,6.6C119.4,25.7,119.4,26.1,119.3,26.3z M112.7,21.4c-1.8,0-3.2,1.1-3.7,3
		h7.4C116.1,22.6,114.8,21.4,112.7,21.4z"/>
	<path class="st7" d="M129.4,21.8c-1.8,0-3.7,1-4.3,3.1v7.3h-3.1v-13h3.1v2.4c1-1.7,2.5-2.8,4.3-2.8V21.8z"/>
	<path class="st7" d="M132.9,14.1c1,0,1.8,0.8,1.8,1.8c0,1-0.8,1.8-1.8,1.8s-1.8-0.7-1.8-1.8C131.1,14.9,131.9,14.1,132.9,14.1z
		 M131.4,19.2h3.1v13h-3.1V19.2z"/>
	<path class="st7" d="M140.1,26.6c0,1.8,0.9,3,2.4,3c1.1,0,3-0.8,3.9-2.6v-7.8h3.1v13h-3.1v-1.9c-1.1,1.4-3,2.2-4.8,2.2
		c-2.6,0-4.6-1.8-4.6-5.2v-8.1h3.1L140.1,26.6L140.1,26.6z"/>
	<path class="st7" d="M152.6,22.8c0-2.1,1.6-3.9,5.1-3.9c2,0,3.5,0.6,5,1.9l-1.4,1.8c-1.1-1-2.2-1.4-3.6-1.4s-2.2,0.6-2.2,1.4
		c0,2.4,7.5,0.7,7.5,5.5c0,2.6-1.9,4.3-5.4,4.3c-2.2,0-4-0.6-5.6-2.1l1.4-1.9c1.4,1.1,2.6,1.7,4.2,1.7c1.5,0,2.5-0.7,2.5-1.8
		C160,25.9,152.6,28.1,152.6,22.8z"/>
</g>
</svg>
