<?xml version="1.0" encoding="utf-8"?>
<!-- Generator: Adobe Illustrator 21.1.0, SVG Export Plug-In . SVG Version: 6.00 Build 0)  -->
<svg version="1.1" id="Layer_1" xmlns="http://www.w3.org/2000/svg" xmlns:xlink="http://www.w3.org/1999/xlink" x="0px" y="0px"
	 width="400px" height="500px" viewBox="0 0 400 500" style="enable-background:new 0 0 400 500;" xml:space="preserve">
<style type="text/css">
.st0{fill:#EDA6A1;}
.st1{fill:#FFFFFF;}
.st2{fill:#6865c4;}
.st3{fill:#7891F9;}
.st4{fill:#6480F9;}
.st5{fill:#5B79E8;}
.st6{fill:#3BC5B6;}
.st7{fill:#0BA88E;}
.st8{fill:#54D3BD;}
.st9{fill:#91ACF9;}
.st10{fill:#a3b9f7;}
.st11{fill:#098470;}
.st12{fill:#a3b9f7;}
.st13{fill:#806C6B;}
.st14{fill:#4B7671;}
.st15{fill:#64666E;}
.st16{fill:#A3A6B2;}
.st17{fill:#6F747D;}
.st18{fill:#E67A73;}
.st19{fill:#F1D834;}
.st20{fill:#E5E5E5;}
.st21{fill:#F75555;}
.st22{fill:#D1C3C3;}
.st23{fill:#333333;}
.st24{fill:#098470;}
.st25{fill:#EA5A50;}
.st26{fill:#6865c4;}
.st27{fill:#6865c4;}
.st28{fill:#a3b9f7;}
.st29{fill:#F5D582;}
.st30{fill:#C8C9CE;}
</style>
<g>
	<g>
		<path class="st0" d="M110.4,8.5h-1.3h-2l-0.2-0.8c-0.2-1-1.1-1.7-2.2-1.7h-2.5c-1,0-1.9,0.7-2.2,1.7l-0.2,0.8h-2h-1.3
			c-0.3,0-0.6,0.3-0.6,0.6s0.3,0.6,0.6,0.6h0.7l0.5,9.5c0.1,1,0.9,1.8,1.9,1.8h7.6c1,0,1.8-0.8,1.9-1.8l0.5-9.5h0.7
			c0.3,0,0.6-0.3,0.6-0.6S110.7,8.5,110.4,8.5z M101.3,8c0.1-0.4,0.5-0.7,0.9-0.7h2.5c0.4,0,0.8,0.3,0.9,0.7l0.1,0.5H101L101.3,8z
			 M101.6,17.9c0,0.3-0.3,0.6-0.6,0.6s-0.6-0.3-0.6-0.6v-6.2c0-0.3,0.3-0.6,0.6-0.6s0.6,0.3,0.6,0.6V17.9z M104.1,17.9
			c0,0.3-0.3,0.6-0.6,0.6s-0.6-0.3-0.6-0.6v-6.2c0-0.3,0.3-0.6,0.6-0.6s0.6,0.3,0.6,0.6V17.9z M106.6,17.9c0,0.3-0.3,0.6-0.6,0.6
			c-0.3,0-0.6-0.3-0.6-0.6v-6.2c0-0.3,0.3-0.6,0.6-0.6c0.3,0,0.6,0.3,0.6,0.6V17.9L106.6,17.9z"/>
	</g>
</g>
<g>
	<g>
		<path class="st1" d="M140.4,8.5h-1.3h-2l-0.2-0.8c-0.2-1-1.1-1.7-2.2-1.7h-2.5c-1,0-1.9,0.7-2.2,1.7l-0.2,0.8h-2h-1.3
			c-0.3,0-0.6,0.3-0.6,0.6s0.3,0.6,0.6,0.6h0.7l0.5,9.5c0.1,1,0.9,1.8,1.9,1.8h7.6c1,0,1.8-0.8,1.9-1.8l0.5-9.5h0.7
			c0.3,0,0.6-0.3,0.6-0.6C141,8.8,140.7,8.5,140.4,8.5z M131.3,8c0.1-0.4,0.5-0.7,0.9-0.7h2.5c0.4,0,0.8,0.3,0.9,0.7l0.1,0.5h-4.6
			L131.3,8z M131.6,17.9c0,0.3-0.3,0.6-0.6,0.6s-0.6-0.3-0.6-0.6v-6.2c0-0.3,0.3-0.6,0.6-0.6s0.6,0.3,0.6,0.6V17.9z M134.1,17.9
			c0,0.3-0.3,0.6-0.6,0.6s-0.6-0.3-0.6-0.6v-6.2c0-0.3,0.3-0.6,0.6-0.6s0.6,0.3,0.6,0.6V17.9z M136.6,17.9c0,0.3-0.3,0.6-0.6,0.6
			s-0.6-0.3-0.6-0.6v-6.2c0-0.3,0.3-0.6,0.6-0.6s0.6,0.3,0.6,0.6V17.9L136.6,17.9z"/>
	</g>
</g>
<g>
	<path class="st2" d="M163.5,8c-3.3,0-6.2,2.2-7.5,5.3c0,0.1,0,0.2,0,0.3c1.3,3.2,4.2,5.3,7.5,5.3s6.2-2.2,7.5-5.3
		c0-0.1,0-0.2,0-0.3C169.7,10.2,166.8,8,163.5,8z M163.5,17.3c-1.9,0-3.4-1.7-3.4-3.8s1.5-3.8,3.4-3.8s3.4,1.7,3.4,3.8
		S165.4,17.3,163.5,17.3z"/>
	<ellipse class="st2" cx="163.5" cy="13.5" rx="2.2" ry="2.4"/>
</g>
<g>
	<path class="st1" d="M193.5,8c-3.3,0-6.2,2.2-7.5,5.3c0,0.1,0,0.2,0,0.3c1.3,3.2,4.2,5.3,7.5,5.3s6.2-2.2,7.5-5.3
		c0-0.1,0-0.2,0-0.3C199.7,10.2,196.8,8,193.5,8z M193.5,17.3c-1.9,0-3.4-1.7-3.4-3.8s1.5-3.8,3.4-3.8s3.4,1.7,3.4,3.8
		S195.4,17.3,193.5,17.3z"/>
	<ellipse class="st1" cx="193.5" cy="13.5" rx="2.2" ry="2.4"/>
</g>
<g>
	<polygon class="st3" points="9,28.3 21,32.8 21,28.5 9,24.1 	"/>
	<polygon class="st4" points="33,28.3 21,32.8 21,28.5 33,24.1 	"/>
	<polygon class="st5" points="21,19.6 9,24.1 21,28.5 33,24.1 	"/>
	<polygon class="st6" points="9,21.6 21,26 21,21.8 9,17.3 	"/>
	<polygon class="st7" points="33,21.6 21,26 21,21.8 33,17.3 	"/>
	<polygon class="st8" points="21,12.9 9,17.3 21,21.8 33,17.3 	"/>
	<polygon class="st3" points="9,14.9 13.4,16.5 13.4,12.3 9,10.6 	"/>
	<polygon class="st4" points="17.8,14.9 13.4,16.5 13.4,12.3 17.8,10.6 	"/>
	<polygon class="st9" points="13.4,9 9,10.6 13.4,12.3 17.8,10.6 	"/>
</g>
<polygon class="st10" points="72,13.5 70.5,12 63.5,19 56.5,12 55,13.5 62,20.5 55,27.5 56.5,29 63.5,22 70.5,29 72,27.5 65,20.5 
	"/>
<path class="st10" d="M24,73.7l-3.4-3.4c0.7-1,1.1-2.2,1.1-3.5c0-3.2-2.6-5.9-5.9-5.9c-3.2,0-5.9,2.6-5.9,5.9s2.6,5.9,5.9,5.9
	c1.3,0,2.5-0.4,3.5-1.1l3.4,3.4L24,73.7z M16,70.9c-2.3,0-4.1-1.8-4.1-4.1s1.8-4.1,4.1-4.1s4.1,1.8,4.1,4.1S18.1,70.9,16,70.9z"/>
<g>
	<path class="st2" d="M11.8,102.5c0-2.5,1.4-4.7,3.5-5.8c-0.9-0.5-1.8-0.7-2.9-0.7C8.9,96,6,98.9,6,102.5s2.9,6.5,6.4,6.5
		c1,0,2-0.2,2.9-0.7C13.2,107.2,11.8,105,11.8,102.5z"/>
	<polygon class="st2" points="14.7,100.7 13.6,100.9 14.4,101.7 14.2,102.9 15.3,102.4 16.3,102.9 16.1,101.7 17,100.9 15.8,100.7 
		15.3,99.6 	"/>
	<polygon class="st2" points="18,105.3 17.2,105.2 16.9,104.5 16.6,105.2 15.8,105.3 16.4,105.9 16.2,106.7 16.9,106.3 17.6,106.7 
		17.4,105.9 	"/>
</g>
<path class="st2" d="M41.6,108.6l-0.3-1c-0.1-0.2,0-0.4,0.2-0.6s0.5-0.4,0.7-0.7c0.1-0.2,0.4-0.3,0.6-0.2l1.1,0.2
	c0.3,0.1,0.5-0.1,0.6-0.4l0.2-0.7l0.2-0.7c0.1-0.3,0-0.5-0.2-0.7l-0.9-0.5c-0.2-0.1-0.3-0.3-0.3-0.5c0-0.3,0-0.6,0-1
	c0-0.2,0.1-0.4,0.3-0.6l0.9-0.6c0.2-0.2,0.3-0.4,0.2-0.7l-0.3-0.6l-0.3-0.7c-0.1-0.2-0.4-0.4-0.6-0.3l-1,0.3c-0.2,0.1-0.5,0-0.6-0.2
	c-0.2-0.2-0.5-0.4-0.7-0.7c-0.2-0.2-0.3-0.4-0.2-0.6l0.2-1.1c0.1-0.3-0.1-0.5-0.4-0.6l-0.7-0.2L39.6,95c-0.3-0.1-0.5,0-0.7,0.2
	l-0.5,0.9c-0.1,0.2-0.3,0.3-0.5,0.3c-0.3,0-0.7,0-1,0c-0.2,0-0.5-0.1-0.6-0.3l-0.6-0.9C35.5,95,35.3,94.9,35,95l-0.7,0.3l-0.7,0.3
	c-0.2,0.1-0.4,0.4-0.3,0.6l0.3,1.1c0.1,0.2,0,0.4-0.2,0.6s-0.5,0.4-0.7,0.7c-0.1,0.2-0.4,0.3-0.6,0.2L31,98.6
	c-0.3-0.1-0.5,0.1-0.6,0.3l-0.2,0.7l-0.2,0.7c-0.1,0.3,0,0.5,0.2,0.7l0.9,0.5c0.2,0.1,0.3,0.3,0.3,0.5c0,0.3,0,0.6,0,1
	c0,0.2-0.1,0.4-0.3,0.6l-0.9,0.6c-0.2,0.2-0.3,0.4-0.2,0.7l0.3,0.6l0.3,0.7c0.1,0.2,0.4,0.4,0.6,0.3l1.1-0.3c0.2-0.1,0.5,0,0.6,0.2
	c0.2,0.2,0.5,0.4,0.7,0.7c0.2,0.1,0.3,0.4,0.2,0.6l-0.2,1.1c-0.1,0.3,0.1,0.5,0.4,0.6l0.7,0.2l0.7,0.2c0.3,0.1,0.5,0,0.7-0.2
	l0.5-0.9c0.1-0.2,0.3-0.3,0.5-0.3c0.3,0,0.6,0,0.9,0c0.2,0,0.4,0.1,0.6,0.3l0.6,0.9c0.2,0.2,0.4,0.3,0.7,0.2l0.7-0.3l0.7-0.3
	C41.6,109.1,41.7,108.8,41.6,108.6z M40.5,103.6c-0.6,1.7-2.4,2.5-4.1,1.9c-1.7-0.6-2.5-2.4-2-4.1s2.4-2.5,4.1-1.9
	C40.2,100.1,41.1,101.9,40.5,103.6z"/>
<g>
	<rect x="59.1" y="96" class="st2" width="9.9" height="2.1"/>
	<rect x="59.1" y="106.9" class="st2" width="9.9" height="2.1"/>
	<rect x="59.1" y="101.4" class="st2" width="9.9" height="2.1"/>
	<circle class="st2" cx="57.1" cy="97.1" r="1.1"/>
	<circle class="st2" cx="57.1" cy="102.5" r="1.1"/>
	<circle class="st2" cx="57.1" cy="107.9" r="1.1"/>
</g>
<g>
	<g>
		<path class="st0" d="M94.4,97.5h-1.3h-2l-0.2-0.8c-0.2-1-1.1-1.7-2.2-1.7h-2.5c-1,0-1.9,0.7-2.2,1.7l-0.2,0.8h-2h-1.3
			c-0.3,0-0.6,0.3-0.6,0.6c0,0.3,0.3,0.6,0.6,0.6h0.7l0.5,9.5c0.1,1,0.9,1.8,1.9,1.8h7.6c1,0,1.8-0.8,1.9-1.8l0.5-9.5h0.7
			c0.3,0,0.6-0.3,0.6-0.6S94.7,97.5,94.4,97.5z M85.3,97c0.1-0.4,0.5-0.7,0.9-0.7h2.5c0.4,0,0.8,0.3,0.9,0.7l0.1,0.5H85L85.3,97z
			 M85.6,106.9c0,0.3-0.3,0.6-0.6,0.6s-0.6-0.3-0.6-0.6v-6.2c0-0.3,0.3-0.6,0.6-0.6s0.6,0.3,0.6,0.6V106.9z M88.1,106.9
			c0,0.3-0.3,0.6-0.6,0.6s-0.6-0.3-0.6-0.6v-6.2c0-0.3,0.3-0.6,0.6-0.6s0.6,0.3,0.6,0.6V106.9z M90.6,106.9c0,0.3-0.3,0.6-0.6,0.6
			c-0.3,0-0.6-0.3-0.6-0.6v-6.2c0-0.3,0.3-0.6,0.6-0.6c0.3,0,0.6,0.3,0.6,0.6V106.9L90.6,106.9z"/>
	</g>
</g>
<g>
	<path class="st11" d="M106.9,109h11.2c0.5,0,0.9-0.4,0.9-0.9v-8.5c0-0.4-0.1-0.7-0.4-0.9L116,96l0,0v4.9h-7V96h-2.1
		c-0.5,0-0.9,0.4-0.9,0.9v8.3v2.9C106,108.6,106.4,109,106.9,109z"/>
	<rect x="113" y="96" class="st11" width="1.9" height="4"/>
</g>
<g>
	<path class="st1" d="M281.9,109h11.2c0.5,0,0.9-0.4,0.9-0.9v-8.5c0-0.4-0.1-0.7-0.4-0.9L291,96l0,0v4.9h-7V96h-2.1
		c-0.5,0-0.9,0.4-0.9,0.9v8.3v2.9C281,108.6,281.4,109,281.9,109z"/>
	<rect x="288" y="96" class="st1" width="1.9" height="4"/>
</g>
<g>
	<path class="st2" d="M137.5,97c-3.3,0-6.2,2.2-7.5,5.3c0,0.1,0,0.2,0,0.3c1.3,3.2,4.2,5.3,7.5,5.3s6.2-2.2,7.5-5.3
		c0-0.1,0-0.2,0-0.3C143.7,99.2,140.8,97,137.5,97z M137.5,106.3c-1.9,0-3.4-1.7-3.4-3.8c0-2.1,1.5-3.8,3.4-3.8s3.4,1.7,3.4,3.8
		C140.9,104.6,139.4,106.3,137.5,106.3z"/>
	<ellipse class="st2" cx="137.5" cy="102.5" rx="2.2" ry="2.4"/>
</g>
<path class="st12" d="M41.6,133.6l-0.3-1c-0.1-0.2,0-0.4,0.2-0.6c0.2-0.2,0.5-0.4,0.7-0.7c0.1-0.2,0.4-0.3,0.6-0.2l1.1,0.2
	c0.3,0.1,0.5-0.1,0.6-0.4l0.2-0.7l0.2-0.7c0.1-0.3,0-0.5-0.2-0.7l-0.9-0.5c-0.2-0.1-0.3-0.3-0.3-0.5c0-0.3,0-0.6,0-1
	c0-0.2,0.1-0.4,0.3-0.6l0.9-0.6c0.2-0.2,0.3-0.4,0.2-0.7l-0.3-0.6l-0.3-0.7c-0.1-0.2-0.4-0.4-0.6-0.3l-1,0.3c-0.2,0.1-0.5,0-0.6-0.2
	c-0.2-0.2-0.5-0.4-0.7-0.7c-0.2-0.2-0.3-0.4-0.2-0.6l0.2-1.1c0.1-0.3-0.1-0.5-0.4-0.6l-0.7-0.2l-0.7-0.3c-0.3-0.1-0.5,0-0.7,0.2
	l-0.5,0.9c-0.1,0.2-0.3,0.3-0.5,0.3c-0.3,0-0.7,0-1,0c-0.2,0-0.5-0.1-0.6-0.3l-0.6-0.9c-0.2-0.2-0.4-0.3-0.7-0.2l-0.7,0.3l-0.7,0.3
	c-0.2,0.1-0.4,0.4-0.3,0.6l0.3,1.1c0.1,0.2,0,0.4-0.2,0.6s-0.5,0.4-0.7,0.7c-0.1,0.2-0.4,0.3-0.6,0.2l-1.1-0.2
	c-0.3-0.1-0.5,0.1-0.6,0.3l-0.2,0.7l-0.2,0.7c-0.1,0.3,0,0.5,0.2,0.7l0.9,0.5c0.2,0.1,0.3,0.3,0.3,0.5c0,0.3,0,0.6,0,1
	c0,0.2-0.1,0.4-0.3,0.6l-0.9,0.6c-0.2,0.1-0.3,0.4-0.2,0.7l0.3,0.6l0.3,0.7c0.1,0.2,0.4,0.4,0.6,0.3l1.1-0.3c0.2-0.1,0.5,0,0.6,0.2
	c0.2,0.2,0.5,0.4,0.7,0.7c0.2,0.1,0.3,0.4,0.2,0.6l-0.2,1.1c-0.1,0.3,0.1,0.5,0.4,0.6l0.7,0.2l0.7,0.2c0.3,0.1,0.5,0,0.7-0.2
	l0.5-0.9c0.1-0.2,0.3-0.3,0.5-0.3c0.3,0,0.6,0,0.9,0c0.2,0,0.4,0.1,0.6,0.3l0.6,0.9c0.2,0.2,0.4,0.3,0.7,0.2l0.7-0.3l0.7-0.3
	C41.6,134.1,41.7,133.8,41.6,133.6z M40.5,128.6c-0.6,1.7-2.4,2.5-4.1,1.9c-1.7-0.6-2.5-2.4-2-4.1s2.4-2.5,4.1-1.9
	C40.2,125.1,41.1,126.9,40.5,128.6z"/>
<g>
	<rect x="59.1" y="121" class="st12" width="9.9" height="2.1"/>
	<rect x="59.1" y="131.9" class="st12" width="9.9" height="2.1"/>
	<rect x="59.1" y="126.4" class="st12" width="9.9" height="2.1"/>
	<circle class="st12" cx="57.1" cy="122.1" r="1.1"/>
	<circle class="st12" cx="57.1" cy="127.5" r="1.1"/>
	<circle class="st12" cx="57.1" cy="132.9" r="1.1"/>
</g>
<g>
	<g>
		<path class="st13" d="M94.4,122.5h-1.3h-2l-0.2-0.8c-0.2-1-1.1-1.7-2.2-1.7h-2.5c-1,0-1.9,0.7-2.2,1.7l-0.2,0.8h-2h-1.3
			c-0.3,0-0.6,0.3-0.6,0.6c0,0.3,0.3,0.6,0.6,0.6h0.7l0.5,9.5c0.1,1,0.9,1.8,1.9,1.8h7.6c1,0,1.8-0.8,1.9-1.8l0.5-9.5h0.7
			c0.3,0,0.6-0.3,0.6-0.6S94.7,122.5,94.4,122.5z M85.3,122c0.1-0.4,0.5-0.7,0.9-0.7h2.5c0.4,0,0.8,0.3,0.9,0.7l0.1,0.5H85L85.3,122
			z M85.6,131.9c0,0.3-0.3,0.6-0.6,0.6s-0.6-0.3-0.6-0.6v-6.2c0-0.3,0.3-0.6,0.6-0.6s0.6,0.3,0.6,0.6V131.9z M88.1,131.9
			c0,0.3-0.3,0.6-0.6,0.6s-0.6-0.3-0.6-0.6v-6.2c0-0.3,0.3-0.6,0.6-0.6s0.6,0.3,0.6,0.6V131.9z M90.6,131.9c0,0.3-0.3,0.6-0.6,0.6
			c-0.3,0-0.6-0.3-0.6-0.6v-6.2c0-0.3,0.3-0.6,0.6-0.6c0.3,0,0.6,0.3,0.6,0.6V131.9L90.6,131.9z"/>
	</g>
</g>
<g>
	<path class="st14" d="M106.9,134h11.2c0.5,0,0.9-0.4,0.9-0.9v-8.5c0-0.4-0.1-0.7-0.4-0.9L116,121l0,0v4.9h-7V121h-2.1
		c-0.5,0-0.9,0.4-0.9,0.9v8.3v2.9C106,133.6,106.4,134,106.9,134z"/>
	<rect x="113" y="121" class="st14" width="1.9" height="4"/>
</g>
<g>
	<path class="st12" d="M137.5,122c-3.3,0-6.2,2.2-7.5,5.3c0,0.1,0,0.2,0,0.3c1.3,3.2,4.2,5.3,7.5,5.3s6.2-2.2,7.5-5.3
		c0-0.1,0-0.2,0-0.3C143.7,124.2,140.8,122,137.5,122z M137.5,131.3c-1.9,0-3.4-1.7-3.4-3.8c0-2.1,1.5-3.8,3.4-3.8s3.4,1.7,3.4,3.8
		S139.4,131.3,137.5,131.3z"/>
	<ellipse class="st12" cx="137.5" cy="127.5" rx="2.2" ry="2.4"/>
</g>
<g>
	<g id="wb-sunny">
		<path class="st12" d="M9,122.9l-1.2-1.2l-1,1l1.2,1.2L9,122.9z M7,126.8H5v1.4h2V126.8z M13.2,120h-1.4v2h1.4V120z M18.3,122.7
			l-1-1l-1.2,1.2l1,1L18.3,122.7z M16,132.1l1.2,1.2l1-1l-1.2-1.2L16,132.1z M18,126.8v1.4h2v-1.4C20,126.8,18,126.8,18,126.8z
			 M12.5,123.4c-2.3,0-4.1,1.9-4.1,4.1s1.8,4.1,4.1,4.1s4.1-1.9,4.1-4.1C16.6,125.2,14.8,123.4,12.5,123.4z M11.8,135
			c0.2,0,1.4,0,1.4,0v-2h-1.4V135z M6.7,132.3l1,1l1.2-1.2l-1-1L6.7,132.3z"/>
	</g>
</g>
<g id="Layer_1_1_">
</g>
<path class="st1" d="M48.9,156.8l-0.2-0.7c0-0.2,0-0.3,0.1-0.4c0.2-0.2,0.3-0.3,0.5-0.5c0.1-0.1,0.3-0.2,0.4-0.2l0.8,0.2
	c0.2,0,0.4-0.1,0.5-0.3l0.2-0.5l0.2-0.5c0.1-0.2,0-0.4-0.2-0.5l-0.7-0.4c-0.1-0.1-0.2-0.2-0.2-0.4s0-0.5,0-0.7s0.1-0.3,0.2-0.4
	l0.7-0.5c0.2-0.1,0.2-0.3,0.1-0.5l-0.2-0.5l-0.2-0.5c-0.1-0.2-0.3-0.3-0.5-0.2l-0.8,0.2c-0.2,0-0.3,0-0.4-0.1
	c-0.2-0.2-0.3-0.3-0.5-0.5c-0.1-0.1-0.2-0.3-0.2-0.4l0.2-0.8c0-0.2-0.1-0.4-0.3-0.5l-0.5-0.2l-0.5-0.2c-0.2-0.1-0.4,0-0.5,0.2
	l-0.4,0.7c-0.1,0.1-0.2,0.2-0.4,0.2s-0.5,0-0.7,0s-0.3-0.1-0.4-0.2l-0.5-0.6c-0.1-0.2-0.3-0.2-0.5-0.1l-0.5,0.2l-0.5,0.2
	c-0.2,0.1-0.3,0.3-0.2,0.5l0.2,0.8c0,0.2,0,0.3-0.1,0.4c-0.2,0.2-0.3,0.3-0.5,0.5c-0.1,0.1-0.3,0.2-0.4,0.2l-0.8-0.2
	c-0.2,0-0.4,0.1-0.5,0.2l-0.2,0.5l-0.2,0.5c-0.1,0.2,0,0.4,0.2,0.5l0.7,0.4c0.1,0.1,0.2,0.2,0.2,0.4s0,0.5,0,0.7s-0.1,0.3-0.2,0.4
	l-0.7,0.5c-0.2,0.1-0.2,0.3-0.1,0.5l0.2,0.5l0.2,0.5c0.1,0.2,0.3,0.3,0.5,0.2l0.8-0.2c0.2,0,0.3,0,0.4,0.1c0.2,0.2,0.3,0.3,0.5,0.5
	c0.1,0.1,0.2,0.3,0.2,0.4L43,157c0,0.2,0.1,0.4,0.3,0.5l0.5,0.2l0.5,0.2c0.2,0.1,0.4,0,0.5-0.2l0.4-0.7c0.1-0.1,0.2-0.2,0.4-0.2
	s0.5,0,0.7,0s0.3,0.1,0.4,0.2l0.5,0.7c0.1,0.2,0.3,0.2,0.5,0.1l0.5-0.2l0.5-0.2C48.8,157.2,48.9,157,48.9,156.8z M48.1,153.2
	c-0.4,1.2-1.8,1.8-3,1.4c-1.2-0.4-1.9-1.8-1.4-2.9c0.4-1.2,1.8-1.8,3-1.4C47.8,150.7,48.5,152,48.1,153.2z"/>
<path class="st1" d="M42.9,160.4l-0.3-0.4c-0.1-0.1-0.1-0.2,0-0.3s0.1-0.3,0.2-0.4c0-0.1,0.1-0.2,0.2-0.2l0.5-0.1
	c0.1,0,0.2-0.1,0.2-0.3v-0.4V158c0-0.1-0.1-0.3-0.2-0.3l-0.5-0.1c-0.1,0-0.2-0.1-0.2-0.2c0-0.2-0.1-0.3-0.2-0.4c0-0.1,0-0.2,0-0.3
	l0.3-0.4c0.1-0.1,0.1-0.2,0-0.3l-0.2-0.2l-0.2-0.3c-0.1-0.1-0.2-0.1-0.3,0l-0.4,0.3c-0.1,0.1-0.2,0.1-0.3,0s-0.3-0.1-0.4-0.2
	c-0.1,0-0.2-0.1-0.2-0.2l-0.1-0.5c0-0.1-0.1-0.2-0.3-0.2h-0.4h-0.3c-0.1,0-0.3,0.1-0.3,0.2l-0.1,0.5c0,0.1-0.1,0.2-0.2,0.2
	c-0.2,0-0.3,0.1-0.5,0.2c-0.1,0-0.2,0-0.3,0l-0.4-0.3c-0.1-0.1-0.2-0.1-0.3,0l-0.3,0.2l-0.3,0.2c-0.1,0.1-0.1,0.2,0,0.3l0.3,0.4
	c0.1,0.1,0.1,0.2,0,0.3s-0.1,0.3-0.2,0.4c0,0.1-0.1,0.2-0.2,0.2l-0.5,0.1c-0.1,0-0.2,0.1-0.2,0.3v0.4v0.4c0,0.1,0.1,0.3,0.2,0.3H37
	c0.1,0,0.2,0.1,0.2,0.2c0,0.2,0.1,0.3,0.2,0.4c0,0.1,0,0.2,0,0.3l-0.3,0.4c-0.1,0.1-0.1,0.2,0,0.3l0.3,0.2l0.2,0.3
	c0.1,0.1,0.2,0.1,0.3,0l0.4-0.3c0.1-0.1,0.2-0.1,0.3,0s0.3,0.1,0.4,0.2c0.1,0,0.2,0.1,0.2,0.2l0.1,0.5c0,0.1,0.1,0.2,0.3,0.2H40h0.4
	c0.1,0,0.3-0.1,0.3-0.2l0.1-0.5c0-0.1,0.1-0.2,0.2-0.2c0.1,0,0.3-0.1,0.4-0.2c0.1,0,0.2,0,0.3,0l0.4,0.3c0.1,0.1,0.2,0.1,0.3,0
	l0.3-0.2l0.3-0.2C42.9,160.7,43,160.5,42.9,160.4z M41.6,158.3c0,0.8-0.7,1.5-1.6,1.5c-0.9,0-1.6-0.7-1.6-1.5s0.7-1.5,1.6-1.5
	C40.9,156.8,41.6,157.5,41.6,158.3z"/>
<path class="st1" d="M77.1,148h-5h-1.9v1.9v2.1h-2.1H66v1.9v5v1.9h1.9h5h1.9v-1.9v-2.1h2.1H79V155v-5v-2H77.1z M67.9,159.1v-5h5v5
	H67.9z M77.1,155H75v-1v-1.9h-2h-1V150h5L77.1,155L77.1,155z"/>
<polygon class="st1" points="108,149.7 106.3,148 101.5,152.8 96.7,148 95,149.7 99.8,154.5 95,159.3 96.7,161 101.5,156.2 
	106.3,161 108,159.3 103.2,154.5 "/>
<path class="st1" d="M21.7,153.8l-1.9-1.9c-0.2-0.2-0.4-0.3-0.6-0.3c-0.6,0-0.9,0.5-0.9,0.9c0,0.2,0.1,0.5,0.3,0.6l0.3,0.3h-3.4V150
	l0.3,0.3c0.2,0.2,0.4,0.3,0.6,0.3c0.5,0,0.9-0.4,0.9-0.9c0-0.2-0.1-0.5-0.3-0.6l-1.9-1.9c-0.2-0.2-0.3-0.3-0.7-0.3
	c-0.3,0-0.5,0.2-0.7,0.3l-1.9,1.9c-0.2,0.2-0.3,0.4-0.3,0.6c0,0.6,0.5,0.9,0.9,0.9c0.2,0,0.5-0.1,0.6-0.3l0.3-0.3v3.4H9.9l0.3-0.3
	c0.2-0.2,0.3-0.4,0.3-0.6c0-0.5-0.4-0.9-0.9-0.9c-0.2,0-0.5,0.1-0.6,0.3l-1.9,1.9c0.1,0.2-0.1,0.4-0.1,0.7s0.1,0.5,0.3,0.7l1.9,1.9
	c0.2,0.2,0.4,0.3,0.6,0.3c0.6,0,0.9-0.5,0.9-0.9c0-0.2-0.1-0.5-0.3-0.6l-0.3-0.3h3.4v3.4l-0.3-0.3c-0.2-0.2-0.4-0.3-0.6-0.3
	c-0.5,0-0.9,0.4-0.9,0.9c0,0.2,0.1,0.5,0.3,0.6l1.9,1.9c0.2,0.2,0.3,0.3,0.7,0.3c0.3,0,0.5-0.1,0.7-0.3l1.9-1.9
	c0.2-0.2,0.3-0.4,0.3-0.6c0-0.6-0.5-0.9-0.9-0.9c-0.2,0-0.5,0.1-0.6,0.3l-0.3,0.3v-3.4h3.4l-0.3,0.3c-0.2,0.2-0.3,0.4-0.3,0.6
	c0,0.5,0.4,0.9,0.9,0.9c0.2,0,0.5-0.1,0.6-0.3l1.9-1.9c0.2-0.2,0.3-0.3,0.3-0.7C22,154.2,21.8,154,21.7,153.8z"/>
<polygon class="st1" points="231.8,0.5 230.3,1.9 234.7,6 230.3,10.1 231.8,11.5 237.7,6 "/>
<polygon class="st1" points="246.2,11.5 247.7,10.1 243.3,6 247.7,1.9 246.2,0.5 240.3,6 "/>
<rect x="127" y="157" class="st15" width="10" height="4"/>
<rect x="121" y="151" class="st15" width="16" height="4"/>
<rect x="127" y="163" class="st15" width="10" height="4"/>
<rect x="121" y="157" class="st15" width="4" height="10"/>
<rect x="147" y="157" class="st3" width="10" height="4"/>
<rect x="141" y="151" class="st3" width="16" height="4"/>
<rect x="147" y="163" class="st3" width="10" height="4"/>
<rect x="141" y="157" class="st3" width="4" height="10"/>
<g>
	<g id="palette">
		<path class="st15" d="M169,150c-5,0-9,4-9,9s4,9,9,9c0.8,0,1.5-0.7,1.5-1.5c0-0.4-0.1-0.7-0.4-1c-0.2-0.3-0.4-0.6-0.4-1
			c0-0.8,0.7-1.5,1.5-1.5h1.8c2.8,0,5-2.2,5-5C178,153.6,174,150,169,150z M163.5,159c-0.8,0-1.5-0.7-1.5-1.5s0.7-1.5,1.5-1.5
			s1.5,0.7,1.5,1.5S164.3,159,163.5,159z M166.5,155c-0.8,0-1.5-0.7-1.5-1.5s0.7-1.5,1.5-1.5s1.5,0.7,1.5,1.5S167.3,155,166.5,155z
			 M171.5,155c-0.8,0-1.5-0.7-1.5-1.5s0.7-1.5,1.5-1.5s1.5,0.7,1.5,1.5S172.3,155,171.5,155z M174.5,159c-0.8,0-1.5-0.7-1.5-1.5
			s0.7-1.5,1.5-1.5s1.5,0.7,1.5,1.5S175.3,159,174.5,159z"/>
	</g>
</g>
<g>
	<g id="palette_1_">
		<path class="st3" d="M189,150c-5,0-9,4-9,9s4,9,9,9c0.8,0,1.5-0.7,1.5-1.5c0-0.4-0.1-0.7-0.4-1c-0.2-0.3-0.4-0.6-0.4-1
			c0-0.8,0.7-1.5,1.5-1.5h1.8c2.8,0,5-2.2,5-5C198,153.6,194,150,189,150z M183.5,159c-0.8,0-1.5-0.7-1.5-1.5s0.7-1.5,1.5-1.5
			s1.5,0.7,1.5,1.5S184.3,159,183.5,159z M186.5,155c-0.8,0-1.5-0.7-1.5-1.5s0.7-1.5,1.5-1.5s1.5,0.7,1.5,1.5S187.3,155,186.5,155z
			 M191.5,155c-0.8,0-1.5-0.7-1.5-1.5s0.7-1.5,1.5-1.5s1.5,0.7,1.5,1.5S192.3,155,191.5,155z M194.5,159c-0.8,0-1.5-0.7-1.5-1.5
			s0.7-1.5,1.5-1.5s1.5,0.7,1.5,1.5S195.3,159,194.5,159z"/>
	</g>
</g>
<path class="st15" d="M214,166.3l-0.3-1.2c-0.1-0.3,0-0.5,0.2-0.7c0.3-0.2,0.5-0.5,0.8-0.8c0.2-0.2,0.4-0.3,0.7-0.3l1.3,0.2
	c0.3,0.1,0.6-0.1,0.7-0.4l0.3-0.8l0.3-0.8c0.1-0.3,0-0.7-0.3-0.8l-1.1-0.7c-0.2-0.1-0.4-0.4-0.4-0.7c0-0.4,0-0.8,0-1.1
	s0.1-0.5,0.3-0.7l1.1-0.7c0.3-0.2,0.4-0.5,0.2-0.8l-0.4-0.8l-0.4-0.8c-0.1-0.3-0.4-0.4-0.8-0.4l-1.2,0.4c-0.3,0.1-0.5,0-0.7-0.2
	c-0.2-0.3-0.5-0.5-0.8-0.8c-0.2-0.2-0.3-0.4-0.3-0.7l0.2-1.3c0.1-0.3-0.1-0.6-0.4-0.7l-0.8-0.3l-0.8-0.3c-0.3-0.1-0.7,0-0.8,0.3
	l-0.6,1.1c-0.1,0.2-0.4,0.4-0.7,0.4c-0.4,0-0.8,0-1.2,0c-0.3,0-0.5-0.1-0.7-0.3l-0.7-1.1c-0.2-0.3-0.5-0.4-0.8-0.2l-0.8,0.4
	l-0.8,0.4c-0.3,0.1-0.4,0.4-0.4,0.8l0.3,1.3c0.1,0.3,0,0.5-0.2,0.7c-0.3,0.3-0.5,0.5-0.8,0.9c-0.2,0.2-0.4,0.3-0.7,0.3l-1.3-0.2
	c-0.3-0.1-0.6,0.1-0.7,0.4l-0.3,0.8l-0.3,0.8c-0.1,0.3,0,0.7,0.3,0.8l1.1,0.7c0.2,0.1,0.4,0.4,0.4,0.7c0,0.4,0,0.8,0,1.1
	s-0.1,0.5-0.3,0.7l-1.1,0.7c-0.3,0.2-0.4,0.5-0.2,0.8l0.4,0.8l0.4,0.8c0.1,0.3,0.4,0.4,0.8,0.4l1.3-0.3c0.3-0.1,0.5,0,0.7,0.2
	c0.3,0.3,0.5,0.5,0.9,0.8c0.2,0.2,0.3,0.4,0.3,0.7l-0.2,1.3c-0.1,0.3,0.1,0.6,0.4,0.7l0.8,0.3l0.8,0.3c0.3,0.1,0.6,0,0.8-0.3
	l0.6-1.1c0.1-0.2,0.4-0.4,0.7-0.4c0.4,0,0.7,0,1.1,0c0.3,0,0.5,0.1,0.7,0.3l0.7,1.1c0.2,0.3,0.5,0.4,0.8,0.2l0.8-0.4l0.8-0.4
	C213.9,166.9,214.1,166.6,214,166.3z M212.6,160.3c-0.7,2-2.9,3-4.9,2.3s-3-2.9-2.3-4.9s2.9-3,4.9-2.3S213.3,158.3,212.6,160.3z"/>
<path class="st3" d="M234,166.3l-0.3-1.2c-0.1-0.3,0-0.5,0.2-0.7c0.3-0.2,0.5-0.5,0.8-0.8c0.2-0.2,0.4-0.3,0.7-0.3l1.3,0.2
	c0.3,0.1,0.6-0.1,0.7-0.4l0.3-0.8l0.3-0.8c0.1-0.3,0-0.7-0.3-0.8l-1.1-0.7c-0.2-0.1-0.4-0.4-0.4-0.7c0-0.4,0-0.8,0-1.1
	s0.1-0.5,0.3-0.7l1.1-0.7c0.3-0.2,0.4-0.5,0.2-0.8l-0.4-0.8l-0.4-0.8c-0.1-0.3-0.4-0.4-0.8-0.4l-1.2,0.4c-0.3,0.1-0.5,0-0.7-0.2
	c-0.2-0.3-0.5-0.5-0.8-0.8c-0.2-0.2-0.3-0.4-0.3-0.7l0.2-1.3c0.1-0.3-0.1-0.6-0.4-0.7l-0.8-0.3l-0.8-0.3c-0.3-0.1-0.7,0-0.8,0.3
	l-0.6,1.1c-0.1,0.2-0.4,0.4-0.7,0.4c-0.4,0-0.8,0-1.2,0c-0.3,0-0.5-0.1-0.7-0.3l-0.7-1.1c-0.2-0.3-0.5-0.4-0.8-0.2l-0.8,0.4
	l-0.8,0.4c-0.3,0.1-0.4,0.4-0.4,0.8l0.3,1.3c0.1,0.3,0,0.5-0.2,0.7c-0.3,0.3-0.5,0.5-0.8,0.9c-0.2,0.2-0.4,0.3-0.7,0.3l-1.3-0.2
	c-0.3-0.1-0.6,0.1-0.7,0.4l-0.3,0.8l-0.3,0.8c-0.1,0.3,0,0.7,0.3,0.8l1.1,0.7c0.2,0.1,0.4,0.4,0.4,0.7c0,0.4,0,0.8,0,1.1
	s-0.1,0.5-0.3,0.7l-1.1,0.7c-0.3,0.2-0.4,0.5-0.2,0.8l0.4,0.8l0.4,0.8c0.1,0.3,0.5,0.4,0.8,0.4l1.3-0.3c0.3-0.1,0.5,0,0.7,0.2
	c0.3,0.3,0.5,0.5,0.9,0.8c0.2,0.2,0.3,0.4,0.3,0.7l-0.2,1.3c-0.1,0.3,0.1,0.6,0.4,0.7l0.8,0.3l0.8,0.3c0.3,0.1,0.7,0,0.8-0.3
	l0.7-1.1c0.1-0.2,0.4-0.4,0.7-0.4c0.4,0,0.7,0,1.1,0c0.3,0,0.5,0.1,0.7,0.3l0.7,1.1c0.2,0.3,0.5,0.4,0.8,0.2l0.8-0.4l0.8-0.4
	C233.9,166.9,234.1,166.6,234,166.3z M232.6,160.3c-0.7,2-2.9,3-4.9,2.3s-3-2.9-2.3-4.9s2.9-3,4.9-2.3S233.3,158.3,232.6,160.3z"/>
<polygon class="st16" points="268,6.2 266.8,5 261.5,10.3 256.2,5 255,6.2 260.3,11.5 255,16.8 256.2,18 261.5,12.7 266.8,18 
	268,16.8 262.7,11.5 "/>
<g>
	<g>
		<path class="st17" d="M296.8,21.3l-0.7,0.6c-0.6,0.6-1.5,0.6-2.1,0c-0.3-0.3-0.4-0.6-0.4-1s0.1-0.7,0.4-1l2.4-2.4
			c0.5-0.5,1.4-1.2,2.1-0.6c0.3,0.3,0.8,0.3,1.1,0c0.3-0.3,0.3-0.8,0-1.1c-1.2-1.2-2.9-0.9-4.4,0.6l-2.4,2.4
			c-0.6,0.6-0.9,1.3-0.9,2.2s0.3,1.6,0.9,2.2s1.4,0.9,2.2,0.9s1.6-0.3,2.2-0.9l0.7-0.6c0.3-0.3,0.3-0.8,0-1.1
			C297.6,21,297.1,21,296.8,21.3z M304.1,12c-1.3-1.3-3-1.3-4.2-0.2l-0.8,0.8c-0.3,0.3-0.3,0.8,0,1.1s0.8,0.3,1.1,0l0.8-0.8
			c0.6-0.6,1.4-0.4,1.9,0.2c0.3,0.3,0.4,0.6,0.4,1s-0.1,0.7-0.4,1l-2.6,2.6c-1.2,1.2-1.7,0.6-2,0.4c-0.3-0.3-0.8-0.3-1.1,0
			c-0.3,0.3-0.3,0.8,0,1.1c0.5,0.5,1.2,0.8,1.8,0.8c0.8,0,1.6-0.4,2.4-1.2l2.6-2.6c0.6-0.6,0.9-1.3,0.9-2.2
			C305,13.3,304.7,12.6,304.1,12z"/>
	</g>
</g>
<g>
	<g>
		<path class="st1" d="M336.8,21.3l-0.7,0.6c-0.6,0.6-1.5,0.6-2.1,0c-0.3-0.3-0.4-0.6-0.4-1s0.1-0.7,0.4-1l2.4-2.4
			c0.5-0.5,1.4-1.2,2.1-0.6c0.3,0.3,0.8,0.3,1.1,0c0.3-0.3,0.3-0.8,0-1.1c-1.2-1.2-2.9-0.9-4.4,0.6l-2.4,2.4
			c-0.6,0.6-0.9,1.3-0.9,2.2s0.3,1.6,0.9,2.2s1.4,0.9,2.2,0.9s1.6-0.3,2.2-0.9l0.7-0.6c0.3-0.3,0.3-0.8,0-1.1
			C337.6,21,337.1,21,336.8,21.3z M344.1,12c-1.3-1.3-3-1.3-4.2-0.2l-0.8,0.8c-0.3,0.3-0.3,0.8,0,1.1s0.8,0.3,1.1,0l0.8-0.8
			c0.6-0.6,1.4-0.4,1.9,0.2c0.3,0.3,0.4,0.6,0.4,1s-0.1,0.7-0.4,1l-2.6,2.6c-1.2,1.2-1.7,0.6-2,0.4c-0.3-0.3-0.8-0.3-1.1,0
			c-0.3,0.3-0.3,0.8,0,1.1c0.5,0.5,1.2,0.8,1.8,0.8c0.8,0,1.6-0.4,2.4-1.2l2.6-2.6c0.6-0.6,0.9-1.3,0.9-2.2
			C345,13.3,344.7,12.6,344.1,12z"/>
	</g>
</g>
<path class="st17" d="M262.5,170.7c0,0.2-0.2,0.3-0.4,0.3h-12.7c-0.2,0-0.4-0.1-0.4-0.3v-1.3c0-0.2,0.2-0.3,0.4-0.3h12.7
	c0.2,0,0.4,0.1,0.4,0.3V170.7z M265.5,165.3c0-0.2-0.2-0.3-0.4-0.3h-15.7c-0.2,0-0.4,0.1-0.4,0.3v1.3c0,0.2,0.2,0.3,0.4,0.3h15.7
	c0.2,0,0.4-0.1,0.4-0.3V165.3z M259.5,161.3c0-0.2-0.2-0.3-0.4-0.3h-9.7c-0.2,0-0.4,0.1-0.4,0.3v1.3c0,0.2,0.2,0.3,0.4,0.3h9.7
	c0.2,0,0.4-0.1,0.4-0.3V161.3z M267,173.3c0-0.2-0.2-0.3-0.4-0.3h-17.3c-0.2,0-0.4,0.1-0.4,0.3v1.3c0,0.2,0.2,0.3,0.4,0.3h17.3
	c0.2,0,0.4-0.1,0.4-0.3V173.3z"/>
<path class="st2" d="M166.3,104.8c0,0.2-0.2,0.2-0.3,0.2h-10.5c-0.2,0-0.3-0.1-0.3-0.2v-1.1c0-0.2,0.2-0.2,0.3-0.2H166
	c0.2,0,0.3,0.1,0.3,0.2V104.8z M168.8,100.3c0-0.2-0.2-0.2-0.3-0.2h-13c-0.2,0-0.3,0.1-0.3,0.2v1.1c0,0.2,0.2,0.2,0.3,0.2h13
	c0.2,0,0.3-0.1,0.3-0.2V100.3z M163.8,97c0-0.2-0.2-0.2-0.3-0.2h-8c-0.2,0-0.3,0.1-0.3,0.2v1.1c0,0.2,0.2,0.2,0.3,0.2h8
	c0.2,0,0.3-0.1,0.3-0.2V97z M170,106.9c0-0.2-0.2-0.2-0.3-0.2h-14.3c-0.2,0-0.3,0.1-0.3,0.2v1.1c0,0.2,0.2,0.2,0.3,0.2h14.3
	c0.2,0,0.3-0.1,0.3-0.2V106.9z"/>
<path class="st12" d="M166.3,129.8c0,0.2-0.2,0.2-0.3,0.2h-10.5c-0.2,0-0.3-0.1-0.3-0.2v-1.1c0-0.2,0.2-0.2,0.3-0.2H166
	c0.2,0,0.3,0.1,0.3,0.2V129.8z M168.8,125.3c0-0.2-0.2-0.2-0.3-0.2h-13c-0.2,0-0.3,0.1-0.3,0.2v1.1c0,0.2,0.2,0.2,0.3,0.2h13
	c0.2,0,0.3-0.1,0.3-0.2V125.3z M163.8,122c0-0.2-0.2-0.2-0.3-0.2h-8c-0.2,0-0.3,0.1-0.3,0.2v1.1c0,0.2,0.2,0.2,0.3,0.2h8
	c0.2,0,0.3-0.1,0.3-0.2V122z M170,131.9c0-0.2-0.2-0.2-0.3-0.2h-14.3c-0.2,0-0.3,0.1-0.3,0.2v1.1c0,0.2,0.2,0.2,0.3,0.2h14.3
	c0.2,0,0.3-0.1,0.3-0.2V131.9z"/>
<path class="st2" d="M183.7,103.7c0-0.2,0.2-0.2,0.3-0.2h10.5c0.2,0,0.3,0.1,0.3,0.2v1.1c0,0.2-0.2,0.2-0.3,0.2H184
	c-0.2,0-0.3-0.1-0.3-0.2V103.7z M181.2,101.4c0,0.2,0.2,0.2,0.3,0.2h13c0.2,0,0.3-0.1,0.3-0.2v-1.1c0-0.2-0.2-0.2-0.3-0.2h-13
	c-0.2,0-0.3,0.1-0.3,0.2V101.4z M186.2,98.1c0,0.2,0.2,0.2,0.3,0.2h8c0.2,0,0.3-0.1,0.3-0.2V97c0-0.2-0.2-0.2-0.3-0.2h-8
	c-0.2,0-0.3,0.1-0.3,0.2V98.1z M180,108c0,0.2,0.2,0.2,0.3,0.2h14.3c0.2,0,0.3-0.1,0.3-0.2v-1.1c0-0.2-0.2-0.2-0.3-0.2h-14.3
	c-0.2,0-0.3,0.1-0.3,0.2V108z"/>
<path class="st12" d="M183.7,128.7c0-0.2,0.2-0.2,0.3-0.2h10.5c0.2,0,0.3,0.1,0.3,0.2v1.1c0,0.2-0.2,0.2-0.3,0.2H184
	c-0.2,0-0.3-0.1-0.3-0.2V128.7z M181.2,126.4c0,0.2,0.2,0.2,0.3,0.2h13c0.2,0,0.3-0.1,0.3-0.2v-1.1c0-0.2-0.2-0.2-0.3-0.2h-13
	c-0.2,0-0.3,0.1-0.3,0.2V126.4z M186.2,123.1c0,0.2,0.2,0.2,0.3,0.2h8c0.2,0,0.3-0.1,0.3-0.2V122c0-0.2-0.2-0.2-0.3-0.2h-8
	c-0.2,0-0.3,0.1-0.3,0.2V123.1z M180,133c0,0.2,0.2,0.2,0.3,0.2h14.3c0.2,0,0.3-0.1,0.3-0.2v-1.1c0-0.2-0.2-0.2-0.3-0.2h-14.3
	c-0.2,0-0.3,0.1-0.3,0.2V133z"/>
<path class="st1" d="M302.5,170.7c0,0.2-0.2,0.3-0.4,0.3h-12.7c-0.2,0-0.4-0.1-0.4-0.3v-1.3c0-0.2,0.2-0.3,0.4-0.3h12.7
	c0.2,0,0.4,0.1,0.4,0.3V170.7z M305.5,165.3c0-0.2-0.2-0.3-0.4-0.3h-15.7c-0.2,0-0.4,0.1-0.4,0.3v1.3c0,0.2,0.2,0.3,0.4,0.3h15.7
	c0.2,0,0.4-0.1,0.4-0.3V165.3z M299.5,161.3c0-0.2-0.2-0.3-0.4-0.3h-9.7c-0.2,0-0.4,0.1-0.4,0.3v1.3c0,0.2,0.2,0.3,0.4,0.3h9.7
	c0.2,0,0.4-0.1,0.4-0.3V161.3z M307,173.3c0-0.2-0.2-0.3-0.4-0.3h-17.3c-0.2,0-0.4,0.1-0.4,0.3v1.3c0,0.2,0.2,0.3,0.4,0.3h17.3
	c0.2,0,0.4-0.1,0.4-0.3V173.3z"/>
<path class="st17" d="M253.5,209.3c0-0.2,0.2-0.3,0.4-0.3h12.7c0.2,0,0.4,0.1,0.4,0.3v1.3c0,0.2-0.2,0.3-0.4,0.3h-12.7
	c-0.2,0-0.4-0.1-0.4-0.3L253.5,209.3L253.5,209.3z M250.5,206.7c0,0.2,0.2,0.3,0.4,0.3h15.7c0.2,0,0.4-0.1,0.4-0.3v-1.3
	c0-0.2-0.2-0.3-0.4-0.3h-15.7c-0.2,0-0.4,0.2-0.4,0.3L250.5,206.7L250.5,206.7z M256.5,202.7c0,0.2,0.2,0.3,0.4,0.3h9.7
	c0.2,0,0.4-0.1,0.4-0.3v-1.3c0-0.2-0.2-0.3-0.4-0.3h-9.7c-0.2,0-0.4,0.1-0.4,0.3V202.7z M249,214.7c0,0.2,0.2,0.3,0.4,0.3h17.3
	c0.2,0,0.4-0.1,0.4-0.3v-1.3c0-0.2-0.2-0.3-0.4-0.3h-17.3c-0.2,0-0.4,0.1-0.4,0.3L249,214.7L249,214.7z"/>
<path class="st1" d="M293.5,209.3c0-0.2,0.2-0.3,0.4-0.3h12.7c0.2,0,0.4,0.1,0.4,0.3v1.3c0,0.2-0.2,0.3-0.4,0.3h-12.7
	c-0.2,0-0.4-0.1-0.4-0.3V209.3z M290.5,206.7c0,0.2,0.2,0.3,0.4,0.3h15.7c0.2,0,0.4-0.1,0.4-0.3v-1.3c0-0.2-0.2-0.3-0.4-0.3h-15.7
	c-0.2,0-0.4,0.2-0.4,0.3V206.7z M296.5,202.7c0,0.2,0.2,0.3,0.4,0.3h9.7c0.2,0,0.4-0.1,0.4-0.3v-1.3c0-0.2-0.2-0.3-0.4-0.3h-9.7
	c-0.2,0-0.4,0.1-0.4,0.3V202.7z M289,214.7c0,0.2,0.2,0.3,0.4,0.3h17.3c0.2,0,0.4-0.1,0.4-0.3v-1.3c0-0.2-0.2-0.3-0.4-0.3h-17.3
	c-0.2,0-0.4,0.1-0.4,0.3V214.7z"/>
<path class="st17" d="M332,169.3c0-0.2,0.2-0.3,0.4-0.3h11.3c0.2,0,0.4,0.1,0.4,0.3v1.3c0,0.2-0.2,0.3-0.4,0.3h-11.3
	c-0.2,0-0.4-0.1-0.4-0.3V169.3z M329,166.7c0,0.2,0.2,0.3,0.4,0.3h17.3c0.2,0,0.4-0.1,0.4-0.3v-1.3c0-0.2-0.2-0.3-0.4-0.3h-17.3
	c-0.2,0-0.4,0.1-0.4,0.3V166.7z M332,162.7c0,0.2,0.2,0.3,0.4,0.3h11.3c0.2,0,0.4-0.1,0.4-0.3v-1.3c0-0.2-0.2-0.3-0.4-0.3h-11.3
	c-0.2,0-0.4,0.1-0.4,0.3V162.7z M329,174.7c0,0.2,0.2,0.3,0.4,0.3h17.3c0.2,0,0.4-0.1,0.4-0.3v-1.3c0-0.2-0.2-0.3-0.4-0.3h-17.3
	c-0.2,0-0.4,0.1-0.4,0.3V174.7z"/>
<path class="st1" d="M372,169.3c0-0.2,0.2-0.3,0.4-0.3h11.3c0.2,0,0.4,0.1,0.4,0.3v1.3c0,0.2-0.2,0.3-0.4,0.3h-11.3
	c-0.2,0-0.4-0.1-0.4-0.3V169.3z M369,166.7c0,0.2,0.2,0.3,0.4,0.3h17.3c0.2,0,0.4-0.1,0.4-0.3v-1.3c0-0.2-0.2-0.3-0.4-0.3h-17.3
	c-0.2,0-0.4,0.1-0.4,0.3V166.7z M372,162.7c0,0.2,0.2,0.3,0.4,0.3h11.3c0.2,0,0.4-0.1,0.4-0.3v-1.3c0-0.2-0.2-0.3-0.4-0.3h-11.3
	c-0.2,0-0.4,0.1-0.4,0.3V162.7z M369,174.7c0,0.2,0.2,0.3,0.4,0.3h17.3c0.2,0,0.4-0.1,0.4-0.3v-1.3c0-0.2-0.2-0.3-0.4-0.3h-17.3
	c-0.2,0-0.4,0.1-0.4,0.3V174.7z"/>
<polygon class="st0" points="19,177.2 17.8,176 12.5,181.3 7.2,176 6,177.2 11.3,182.5 6,187.8 7.2,189 12.5,183.7 17.8,189 
	19,187.8 13.7,182.5 "/>
<g>
	<path class="st15" d="M39.7,182.7c-2,0-3.6-1.6-3.6-3.6s1.6-3.6,3.6-3.6s3.6,1.6,3.6,3.6C43.4,181.1,41.7,182.7,39.7,182.7z
		 M39.7,176.9c-1.2,0-2.2,1-2.2,2.2s1,2.2,2.2,2.2s2.2-1,2.2-2.2C42,177.9,41,176.9,39.7,176.9z"/>
	<path class="st15" d="M39.7,172.8c-3.5,0-6.3,2.8-6.3,6.3v6.4c0.4,0.4,0.9,0.8,1.4,1.1v-7.5c0-2.7,2.2-5,5-5c2.7,0,5,2.2,5,5
		c0,2.7-2.2,5-5,5c-1.4,0-2.7-0.6-3.6-1.6v1.8c1,0.7,2.3,1.1,3.6,1.1c3.5,0,6.3-2.8,6.3-6.3C46.1,175.6,43.2,172.8,39.7,172.8z"/>
	<g>
		<path class="st15" d="M46.1,174.8l1.2-0.8c-1.6-2.4-4.4-4-7.5-4c-5,0-9,4-9,9c0,1.8,0.5,3.4,1.4,4.8v-4.7c0-4.2,3.4-7.6,7.6-7.6
			C42.4,171.5,44.7,172.8,46.1,174.8z"/>
		<path class="st15" d="M46.1,183.3c-1.4,2.1-3.7,3.4-6.4,3.4c-1.3,0-2.5-0.3-3.6-0.9v1.5c1.1,0.5,2.3,0.8,3.6,0.8
			c3.1,0,5.9-1.6,7.5-4.1L46.1,183.3z"/>
	</g>
</g>
<g>
	<path class="st3" d="M59.7,182.7c-2,0-3.6-1.6-3.6-3.6s1.6-3.6,3.6-3.6s3.6,1.6,3.6,3.6C63.4,181.1,61.7,182.7,59.7,182.7z
		 M59.7,176.9c-1.2,0-2.2,1-2.2,2.2s1,2.2,2.2,2.2s2.2-1,2.2-2.2C62,177.9,61,176.9,59.7,176.9z"/>
	<path class="st3" d="M59.7,172.8c-3.5,0-6.3,2.8-6.3,6.3v6.4c0.4,0.4,0.9,0.8,1.4,1.1v-7.5c0-2.7,2.2-5,5-5c2.7,0,5,2.2,5,5
		c0,2.7-2.2,5-5,5c-1.4,0-2.7-0.6-3.6-1.6v1.8c1,0.7,2.3,1.1,3.6,1.1c3.5,0,6.3-2.8,6.3-6.3C66.1,175.6,63.2,172.8,59.7,172.8z"/>
	<g>
		<path class="st3" d="M66.1,174.8l1.2-0.8c-1.6-2.4-4.4-4-7.5-4c-5,0-9,4-9,9c0,1.8,0.5,3.4,1.4,4.8v-4.7c0-4.2,3.4-7.6,7.6-7.6
			C62.4,171.5,64.7,172.8,66.1,174.8z"/>
		<path class="st3" d="M66.1,183.3c-1.4,2.1-3.7,3.4-6.4,3.4c-1.3,0-2.5-0.3-3.6-0.9v1.5c1.1,0.5,2.3,0.8,3.6,0.8
			c3.1,0,5.9-1.6,7.5-4.1L66.1,183.3z"/>
	</g>
</g>
<title></title>
<desc></desc>
<g id="Icons_with_numbers">
	<g id="Group" transform="translate(-720.000000, -432.000000)">
		<path id="Rectangle_217" class="st3" d="M790,621.1h17.1v-4.4h2.9v4.4v2.9h-20V621.1z M790,616.7h2.9v4.4H790V616.7z M797.1,602
			h5.7v10.3h2.9l-5.7,7.3l-5.7-7.3h2.9V602H797.1z"/>
	</g>
</g>
<path class="st18" d="M142.3,183.5l-13.4-12.8c-0.5-0.5-1.2-0.7-1.8-0.7H111c-0.7,0-1.3,0.3-1.8,0.7l-13.4,12.8
	c-0.5,0.5-0.8,1.2-0.8,1.9v17.1c0,0.7,0.3,1.4,0.8,1.9l13.4,12.8c0.5,0.5,1.2,0.7,1.8,0.7h16c0.7,0,1.3-0.3,1.8-0.7l13.4-12.8
	c0.5-0.5,0.8-1.2,0.8-1.9v-17.1C143.1,184.7,142.8,184,142.3,183.5z"/>
<path class="st6" d="M197.2,183.5l-13.3-12.8c-0.5-0.5-1.2-0.7-1.8-0.7H166c-0.7,0-1.3,0.3-1.8,0.7l-13.3,12.8
	c-0.5,0.5-0.8,1.2-0.8,1.9v17.1c0,0.7,0.3,1.4,0.8,1.9l13.3,12.8c0.5,0.5,1.2,0.7,1.8,0.7h16c0.7,0,1.3-0.3,1.8-0.7l13.3-12.8
	c0.5-0.5,0.8-1.2,0.8-1.9v-17.1C198,184.7,197.7,184,197.2,183.5z"/>
<path class="st1" d="M122.5,201.7v4.1c0,0.3-0.1,0.6-0.3,0.8c-0.2,0.2-0.5,0.4-0.8,0.4h-4.6c-0.3,0-0.6-0.1-0.8-0.4
	c-0.2-0.2-0.3-0.5-0.3-0.8v-4.1c0-0.3,0.1-0.6,0.3-0.8c0.2-0.2,0.5-0.4,0.8-0.4h4.6c0.3,0,0.6,0.1,0.8,0.4
	C122.3,201.1,122.5,201.4,122.5,201.7z M123,182.2l-0.5,14.2c0,0.3-0.1,0.6-0.4,0.8c-0.2,0.2-0.5,0.4-0.8,0.4h-4.6
	c-0.3,0-0.6-0.1-0.8-0.4c-0.2-0.2-0.4-0.5-0.4-0.8l-0.5-14.2c0-0.3,0.1-0.6,0.3-0.8s0.5-0.4,0.8-0.4h5.8c0.3,0,0.6,0.1,0.8,0.4
	C122.9,181.6,123,181.9,123,182.2z"/>
<g>
	<path class="st1" d="M170.7,203.9l-10.1-10.2c-0.1-0.1-0.1-0.3,0-0.5l2.9-2.9c0.1-0.1,0.3-0.1,0.5,0l6.9,7l13-13.2
		c0.1-0.1,0.3-0.1,0.5,0l2.9,2.9c0.1,0.1,0.1,0.3,0,0.5l-16.2,16.4C171,204,170.8,204,170.7,203.9z"/>
</g>
<g>
	<g id="Icons_with_numbers_1_">
		<g id="Group_1_" transform="translate(-48.000000, -96.000000)">
			<path id="Shape" class="st15" d="M263.8,279.5V272h-4.5v7.5H257l4.5,4.5l4.5-4.5H263.8L263.8,279.5z"/>
		</g>
	</g>
	<g id="Icons_with_numbers_2_">
		<g id="Group_2_" transform="translate(-48.000000, -96.000000)">
			<path id="Shape_2_" class="st15" d="M250.3,270.5v7.5h4.5v-7.5h2.3l-4.5-4.5l-4.5,4.5H250.3L250.3,270.5z"/>
		</g>
	</g>
</g>
<g>
	<g id="Icons_with_numbers_4_">
		<g id="Group_4_" transform="translate(-48.000000, -96.000000)">
			<path id="Shape_3_" class="st3" d="M283.8,279.5V272h-4.5v7.5H277l4.5,4.5l4.5-4.5H283.8L283.8,279.5z"/>
		</g>
	</g>
	<g id="Icons_with_numbers_3_">
		<g id="Group_3_" transform="translate(-48.000000, -96.000000)">
			<path id="Shape_1_" class="st3" d="M270.3,270.5v7.5h4.5v-7.5h2.3l-4.5-4.5l-4.5,4.5H270.3L270.3,270.5z"/>
		</g>
	</g>
</g>
<g>
	<path class="st6" d="M7.8,344L7.8,344l0.1,0.2h2.6v4.5c0,0.1,0,0.2,0.1,0.2c0.1,0.1,0.2,0.1,0.2,0.1h2.5c0.1,0,0.2,0,0.2-0.1
		c0.1-0.1,0.1-0.2,0.1-0.2v-4.5h2.6c0,0,0.1,0,0.1-0.1V344l-4-3.9c-0.1-0.1-0.1-0.1-0.2-0.1s-0.2,0-0.2,0.1L7.8,344L7.8,344z"/>
	<path class="st6" d="M20.2,349.9l-2.5-2c-0.2-0.1-0.4-0.2-0.6-0.2h-1.4l2.4,2.5h-2.4l-1.3,1.8H9.6l-1.2-1.8H6l2.4-2.5H6.9
		c-0.2,0-0.4,0.1-0.6,0.2l-2.5,2c-0.2,0.1-0.3,0.3-0.2,0.5l1,3.2c0.1,0.2,0.3,0.4,0.4,0.4h14c0.2,0,0.3-0.2,0.4-0.4l1-3.2
		C20.4,350.2,20.4,350,20.2,349.9z"/>
</g>
<g id="Group_5_">
	<path id="Triangle_292" class="st19" d="M328,190l8,14h-16L328,190z M327,200v2h2.1v-2H327z M327,194v5h2.1v-5H327z"/>
</g>
<circle class="st20" cx="348" cy="197" r="7"/>
<circle class="st19" cx="367" cy="197" r="7"/>
<g>
	<path class="st1" d="M347.1,198.7v-0.3c0-0.6,0.2-1.3,0.7-1.9c0.4-0.5,0.7-0.9,0.7-1.3c0-0.4-0.3-0.7-0.9-0.7
		c-0.4,0-0.9,0.1-1.2,0.4l-0.4-1.3c0.5-0.3,1.2-0.5,2.1-0.5c1.7,0,2.4,0.9,2.4,1.9c0,0.9-0.6,1.5-1.1,2.1c-0.5,0.5-0.7,1-0.6,1.5
		v0.2L347.1,198.7L347.1,198.7z M346.8,200.3c0-0.6,0.5-1.1,1.1-1.1c0.7,0,1.1,0.5,1.1,1.1s-0.5,1.1-1.1,1.1
		C347.2,201.4,346.8,201,346.8,200.3z"/>
</g>
<polygon class="st21" points="18,317.1 16.9,316 12,320.9 7.1,316 6,317.1 10.9,322 6,326.9 7.1,328 12,323.1 16.9,328 18,326.9 
	13.1,322 "/>
<g id="Ps">
</g>
<g id="Ai">
</g>
<g id="Ai_download">
</g>
<g id="Image">
</g>
<g id="Image_download">
</g>
<g id="Video">
</g>
<g id="Video_download">
</g>
<g id="Ps_download">
</g>
<g id="Doc">
</g>
<g id="Doc_download">
</g>
<g id="Music">
</g>
<g id="Music_download">
</g>
<g id="Pdf_download">
</g>
<g id="Word">
</g>
<g id="Word_download">
</g>
<g id="Exel">
</g>
<g id="Exel_download">
</g>
<g id="Powerpoint">
</g>
<g id="Powerpoint_download">
</g>
<g id="Zip">
</g>
<g id="Zip_download">
</g>
<path class="st22" d="M27.2,311.1c-1.2,0-2.2,1-2.2,2.2v8.9v4.4v6.7c0,1.2,1,2.2,2.2,2.2h15.6c1.2,0,2.2-1,2.2-2.2v-6.7v-4.4v-4.4
	l-6.7-6.7H27.2z"/>
<path class="st20" d="M27.2,310c-1.2,0-2.2,1-2.2,2.2v8.9v4.4v6.7c0,1.2,1,2.2,2.2,2.2h15.6c1.2,0,2.2-1,2.2-2.2v-6.7v-4.4v-4.4
	l-6.7-6.7H27.2z"/>
<path class="st22" d="M45,316.7l-6.7-6.7v4.4c0,1.2,1,2.2,2.2,2.2H45V316.7z"/>
<g id="Icons">
	<g>
		<polygon class="st6" points="68.7,316 59.9,324.9 55.3,320.3 53.8,321.8 59.9,328 70.3,317.5 		"/>
	</g>
</g>
<g id="Icons_1_">
	<g>
		<polygon class="st23" points="91,313.5 85.7,318.7 82.9,316 82,316.9 85.7,320.5 92,314.3 		"/>
	</g>
</g>
<path class="st1" d="M103.8,322.7v2.5c0,0.2-0.1,0.4-0.2,0.5s-0.3,0.2-0.4,0.2h-2.3c-0.2,0-0.3-0.1-0.4-0.2s-0.2-0.3-0.2-0.5v-2.5
	c0-0.2,0.1-0.4,0.2-0.5s0.3-0.2,0.4-0.2h2.3c0.2,0,0.3,0.1,0.4,0.2C103.7,322.4,103.8,322.6,103.8,322.7z M104,310.7l-0.3,8.7
	c0,0.2-0.1,0.4-0.2,0.5s-0.3,0.2-0.4,0.2h-2.3c-0.2,0-0.3-0.1-0.4-0.2s-0.2-0.3-0.2-0.5l-0.2-8.7c0-0.2,0-0.4,0.1-0.5
	s0.3-0.2,0.4-0.2h2.9c0.2,0,0.3,0.1,0.4,0.2C103.9,310.4,104,310.6,104,310.7z"/>
<g>
	<rect x="366" y="193" class="st1" width="2" height="5"/>
	<rect x="366" y="199" class="st1" width="2" height="2"/>
</g>
<path class="st15" d="M209,190c-5,0-9,4-9,9s4,9,9,9s9-4,9-9S214,190,209,190z M209.8,203.4v1.6h-1.5v-1.6c-1.6-0.2-2.6-1.1-2.7-2.5
	h1.7c0.1,0.7,0.8,1.1,1.8,1.1c0.9,0,1.6-0.4,1.6-1.1c0-0.5-0.4-0.8-1.5-1.1l-1.1-0.2c-1.5-0.3-2.3-1.1-2.3-2.4c0-1.4,1-2.3,2.5-2.6
	V193h1.5v1.6c1.5,0.2,2.5,1.2,2.5,2.5h-1.7c-0.1-0.7-0.7-1.1-1.6-1.1c-0.9,0-1.5,0.4-1.5,1.1c0,0.5,0.4,0.8,1.4,1l1,0.2
	c1.7,0.4,2.4,1.1,2.4,2.4C212.4,202.2,211.4,203.2,209.8,203.4z"/>
<path class="st3" d="M229,190c-5,0-9,4-9,9s4,9,9,9s9-4,9-9S234,190,229,190z M229.8,203.4v1.6h-1.5v-1.6c-1.6-0.2-2.6-1.1-2.7-2.5
	h1.7c0.1,0.7,0.8,1.1,1.8,1.1c0.9,0,1.6-0.4,1.6-1.1c0-0.5-0.4-0.8-1.5-1.1l-1.1-0.2c-1.5-0.3-2.3-1.1-2.3-2.4c0-1.4,1-2.3,2.5-2.6
	V193h1.5v1.6c1.5,0.2,2.5,1.2,2.5,2.5h-1.7c-0.1-0.7-0.7-1.1-1.6-1.1c-0.9,0-1.5,0.4-1.5,1.1c0,0.5,0.4,0.8,1.4,1l1,0.2
	c1.7,0.4,2.4,1.1,2.4,2.4C232.4,202.2,231.4,203.2,229.8,203.4z"/>
<g id="icons">
	<path id="share" class="st2" d="M203.8,102.3l5.9,5.3c0.4,0.5,1,0,1-0.7V104c3.8,0,7.1,2.1,9.1,5.1c0.5,0.8,1.9,0.4,1.7-0.5
		c-0.3-1.3-0.6-2.4-1.3-3.6c-1.7-3.4-5.3-6-9.5-6v-2.6c0-0.7-0.5-1.2-1-0.7l-5.9,5.3C203.4,101.4,203.4,102,203.8,102.3z"/>
</g>
<g id="icons_1_">
	<path id="share_1_" class="st12" d="M203.8,127.3l5.9,5.3c0.4,0.5,1,0,1-0.7V129c3.8,0,7.1,2.1,9.1,5.1c0.5,0.8,1.9,0.4,1.7-0.5
		c-0.3-1.3-0.6-2.4-1.3-3.6c-1.7-3.4-5.3-6-9.5-6v-2.6c0-0.7-0.5-1.2-1-0.7l-5.9,5.3C203.4,126.4,203.4,127,203.8,127.3z"/>
</g>
<g>
	<path class="st2" d="M130.2,322.6l3.3,3.2c0,0,0,0,0.1,0l0,0l0,0l0,0l0,0l0,0l0,0l0,0l0,0l0,0l0,0l0,0l0,0l0,0l0,0l0,0l0,0l0,0l0,0
		l0,0l0,0l0,0l0,0l0,0l0,0l0,0l0,0l0,0l0,0l0,0l0,0l0,0l0,0l0,0l0,0l0,0l0,0l0,0l0,0l0,0l0,0c0,0,0,0,0.1,0l3.3-3.2
		c0.3-0.3,0.3-0.7,0-1s-0.7-0.3-1,0l-2,2v-4.4c0-0.4-0.3-0.7-0.7-0.7s-0.7,0.3-0.7,0.7v4.4l-2-2c-0.3-0.3-0.7-0.3-1,0
		C129.9,321.9,129.9,322.3,130.2,322.6z"/>
	<path class="st2" d="M130.2,313.4l3.3-3.2c0,0,0,0,0.1,0l0,0l0,0l0,0l0,0l0,0l0,0l0,0l0,0l0,0l0,0l0,0l0,0l0,0l0,0l0,0l0,0l0,0l0,0
		l0,0l0,0l0,0l0,0l0,0l0,0l0,0l0,0l0,0l0,0l0,0l0,0l0,0l0,0l0,0l0,0l0,0l0,0l0,0l0,0l0,0l0,0c0,0,0,0,0.1,0l3.3,3.2
		c0.3,0.3,0.3,0.7,0,1s-0.7,0.3-1,0l-2-2v4.4c0,0.4-0.3,0.7-0.7,0.7s-0.7-0.3-0.7-0.7v-4.4l-2,2c-0.3,0.3-0.7,0.3-1,0
		C129.9,314.1,129.9,313.7,130.2,313.4z"/>
</g>
<g>
	<path class="st2" d="M140.2,321.9l3.3-3.2c0,0,0,0,0.1,0l0,0l0,0l0,0l0,0l0,0l0,0l0,0l0,0l0,0l0,0l0,0l0,0l0,0l0,0l0,0l0,0l0,0l0,0
		l0,0l0,0l0,0l0,0l0,0l0,0l0,0l0,0l0,0l0,0l0,0l0,0l0,0l0,0l0,0l0,0l0,0l0,0l0,0l0,0l0,0l0,0c0,0,0,0,0.1,0l3.3,3.2
		c0.3,0.3,0.3,0.7,0,1s-0.7,0.3-1,0l-2-2v4.4c0,0.4-0.3,0.7-0.7,0.7s-0.7-0.3-0.7-0.7v-4.4l-2,2c-0.3,0.3-0.7,0.3-1,0
		C139.9,322.7,139.9,322.2,140.2,321.9z"/>
	<path class="st2" d="M140.2,314.1l3.3,3.2c0,0,0,0,0.1,0l0,0l0,0l0,0l0,0l0,0l0,0l0,0l0,0l0,0l0,0l0,0l0,0l0,0l0,0l0,0l0,0l0,0l0,0
		l0,0l0,0l0,0l0,0l0,0l0,0l0,0l0,0l0,0l0,0l0,0l0,0l0,0l0,0l0,0l0,0l0,0l0,0l0,0l0,0l0,0l0,0c0,0,0,0,0.1,0l3.3-3.2
		c0.3-0.3,0.3-0.7,0-1s-0.7-0.3-1,0l-2,2v-4.4c0-0.4-0.3-0.7-0.7-0.7s-0.7,0.3-0.7,0.7v4.4l-2-2c-0.3-0.3-0.7-0.3-1,0
		C139.9,313.3,139.9,313.8,140.2,314.1z"/>
</g>
<g>
	<path class="st2" d="M199,315.1c0-0.6,0.5-1.1,1.1-1.1h11.7c0.6,0,1.1,0.5,1.1,1.1s-0.5,1.1-1.1,1.1h-11.7
		C199.5,316.3,199,315.8,199,315.1z M211.9,318.9h-11.7c-0.6,0-1.1,0.5-1.1,1.1s0.5,1.1,1.1,1.1h11.7c0.6,0,1.1-0.5,1.1-1.1
		S212.5,318.9,211.9,318.9z M211.9,323.7h-11.7c-0.6,0-1.1,0.5-1.1,1.1s0.5,1.1,1.1,1.1h11.7c0.6,0,1.1-0.5,1.1-1.1
		S212.5,323.7,211.9,323.7z"/>
</g>
<g>
	<path class="st10" d="M224,315.1c0-0.6,0.5-1.1,1.1-1.1h11.7c0.6,0,1.1,0.5,1.1,1.1s-0.5,1.1-1.1,1.1h-11.7
		C224.5,316.3,224,315.8,224,315.1z M236.9,318.9h-11.7c-0.6,0-1.1,0.5-1.1,1.1s0.5,1.1,1.1,1.1h11.7c0.6,0,1.1-0.5,1.1-1.1
		S237.5,318.9,236.9,318.9z M236.9,323.7h-11.7c-0.6,0-1.1,0.5-1.1,1.1s0.5,1.1,1.1,1.1h11.7c0.6,0,1.1-0.5,1.1-1.1
		S237.5,323.7,236.9,323.7z"/>
</g>
<polygon class="st0" points="192,311.1 190.9,310 186,314.9 181.1,310 180,311.1 184.9,316 180,320.9 181.1,322 186,317.1 
	190.9,322 192,320.9 187.1,316 "/>
<g>
	<path class="st2" d="M157,310c-3.9,0-7,3.1-7,7s3.1,7,7,7s7-3.1,7-7S160.9,310,157,310z M157,322.6c-3.1,0-5.6-2.5-5.6-5.6
		s2.5-5.6,5.6-5.6s5.6,2.5,5.6,5.6S160.1,322.6,157,322.6z"/>
	<path class="st2" d="M159.6,316.3h-2v-2c0-0.4-0.3-0.7-0.7-0.7s-0.7,0.3-0.7,0.7v2h-2c-0.4,0-0.7,0.3-0.7,0.7
		c0,0.4,0.3,0.7,0.7,0.7h2v2c0,0.4,0.3,0.7,0.7,0.7s0.7-0.3,0.7-0.7v-2h2c0.4,0,0.7-0.3,0.7-0.7C160.3,316.6,160,316.3,159.6,316.3z
		"/>
</g>
<g>
	<path class="st2" d="M157,325c-3.9,0-7,3.1-7,7s3.1,7,7,7s7-3.1,7-7S160.9,325,157,325z M157,337.6c-3.1,0-5.6-2.5-5.6-5.6
		s2.5-5.6,5.6-5.6s5.6,2.5,5.6,5.6S160.1,337.6,157,337.6z"/>
	<path class="st2" d="M159.6,331.3h-5.3c-0.4,0-0.7,0.3-0.7,0.7c0,0.4,0.3,0.7,0.7,0.7h5.3c0.4,0,0.7-0.3,0.7-0.7
		C160.3,331.6,160,331.3,159.6,331.3z"/>
</g>
<g>
	<path class="st1" d="M157,340c-3.9,0-7,3.1-7,7s3.1,7,7,7s7-3.1,7-7S160.9,340,157,340z M157,352.6c-3.1,0-5.6-2.5-5.6-5.6
		s2.5-5.6,5.6-5.6s5.6,2.5,5.6,5.6S160.1,352.6,157,352.6z"/>
	<path class="st1" d="M159.6,346.3h-2v-2c0-0.4-0.3-0.7-0.7-0.7s-0.7,0.3-0.7,0.7v2h-2c-0.4,0-0.7,0.3-0.7,0.7
		c0,0.4,0.3,0.7,0.7,0.7h2v2c0,0.4,0.3,0.7,0.7,0.7s0.7-0.3,0.7-0.7v-2h2c0.4,0,0.7-0.3,0.7-0.7C160.3,346.6,160,346.3,159.6,346.3z
		"/>
</g>
<g>
	<path class="st1" d="M157,355c-3.9,0-7,3.1-7,7s3.1,7,7,7s7-3.1,7-7S160.9,355,157,355z M157,367.6c-3.1,0-5.6-2.5-5.6-5.6
		s2.5-5.6,5.6-5.6s5.6,2.5,5.6,5.6S160.1,367.6,157,367.6z"/>
	<path class="st1" d="M159.6,361.3h-5.3c-0.4,0-0.7,0.3-0.7,0.7c0,0.4,0.3,0.7,0.7,0.7h5.3c0.4,0,0.7-0.3,0.7-0.7
		C160.3,361.6,160,361.3,159.6,361.3z"/>
</g>
<g>
	<path id="a_10_" class="st1" d="M164.3,348.3l3.3-3.3l-3.3-3.3l0,0c-0.4-0.4-0.4-1,0-1.4s1-0.4,1.4,0l4,4c0.4,0.4,0.4,1,0,1.4l-4,4
		l0,0c-0.4,0.4-1,0.4-1.4,0C163.9,349.3,163.9,348.7,164.3,348.3L164.3,348.3z"/>
</g>
<g>
	<path id="a_1_" class="st1" d="M171.7,340.3l3.3,3.3l3.3-3.3l0,0c0.4-0.4,1-0.4,1.4,0s0.4,1,0,1.4l-4,4c-0.4,0.4-1,0.4-1.4,0l-4-4
		l0,0c-0.4-0.4-0.4-1,0-1.4S171.3,339.9,171.7,340.3L171.7,340.3z"/>
</g>
<g>
	<path class="st2" d="M171,311.4h2.1c0.4,0,0.7-0.3,0.7-0.7c0-0.4-0.3-0.7-0.7-0.7H171c-0.4,0-0.7,0.3-0.7,0.7
		S170.6,311.4,171,311.4z"/>
	<path class="st2" d="M173,316.3h-2c-0.4,0-0.7,0.3-0.7,0.7s0.3,0.7,0.7,0.7h2.1c0.4,0,0.7-0.3,0.7-0.7S173.4,316.3,173,316.3z"/>
	<path class="st2" d="M173,322.6h-2c-0.4,0-0.7,0.3-0.7,0.7c0,0.4,0.3,0.7,0.7,0.7h2.1c0.4,0,0.7-0.3,0.7-0.7S173.4,322.6,173,322.6
		z"/>
</g>
<g>
	<path class="st1" d="M171,326.4h2.1c0.4,0,0.7-0.3,0.7-0.7c0-0.4-0.3-0.7-0.7-0.7H171c-0.4,0-0.7,0.3-0.7,0.7
		S170.6,326.4,171,326.4z"/>
	<path class="st1" d="M173,331.3h-2c-0.4,0-0.7,0.3-0.7,0.7s0.3,0.7,0.7,0.7h2.1c0.4,0,0.7-0.3,0.7-0.7S173.4,331.3,173,331.3z"/>
	<path class="st1" d="M173,337.6h-2c-0.4,0-0.7,0.3-0.7,0.7c0,0.4,0.3,0.7,0.7,0.7h2.1c0.4,0,0.7-0.3,0.7-0.7S173.4,337.6,173,337.6
		z"/>
</g>
<path class="st24" d="M194.3,346.8h-6.1v-6.1c0-0.4-0.3-0.7-0.7-0.7s-0.7,0.3-0.7,0.7v6.1h-6.1c-0.4,0-0.7,0.3-0.7,0.7
	c0,0.4,0.3,0.7,0.7,0.7h6.1v6.1c0,0.4,0.3,0.7,0.7,0.7s0.7-0.3,0.7-0.7v-6.1h6.1c0.4,0,0.7-0.3,0.7-0.7S194.7,346.8,194.3,346.8z"/>
<path class="st24" d="M206.7,347.3h-4.4v4.4c0,0.1-0.1,0.3-0.3,0.3h-2c-0.1,0-0.3-0.1-0.3-0.3v-4.4h-4.4c-0.1,0-0.3-0.1-0.3-0.3v-2
	c0-0.1,0.1-0.3,0.3-0.3h4.4v-4.4c0-0.1,0.1-0.3,0.3-0.3h2.1c0.1,0,0.3,0.1,0.3,0.3v4.4h4.4c0.1,0,0.3,0.1,0.3,0.3v2.1
	C207,347.2,206.9,347.3,206.7,347.3z"/>
<polygon class="st2" points="229.5,346.8 228.2,345.5 222.5,351.2 216.8,345.5 215.5,346.8 221.2,352.5 215.5,358.2 216.8,359.5 
	222.5,353.8 228.2,359.5 229.5,358.2 223.8,352.5 "/>
<g>
	<g>
		<path class="st2" d="M254.4,347.5h-1.3h-2l-0.2-0.8c-0.2-1-1.1-1.7-2.2-1.7h-2.5c-1,0-1.9,0.7-2.2,1.7l-0.2,0.8h-2h-1.3
			c-0.3,0-0.6,0.3-0.6,0.6c0,0.3,0.3,0.6,0.6,0.6h0.7l0.5,9.5c0.1,1,0.9,1.8,1.9,1.8h7.6c1,0,1.8-0.8,1.9-1.8l0.5-9.5h0.7
			c0.3,0,0.6-0.3,0.6-0.6S254.7,347.5,254.4,347.5z M245.3,347c0.1-0.4,0.5-0.7,0.9-0.7h2.5c0.4,0,0.8,0.3,0.9,0.7l0.1,0.5H245
			L245.3,347z M245.6,356.9c0,0.3-0.3,0.6-0.6,0.6s-0.6-0.3-0.6-0.6v-6.2c0-0.3,0.3-0.6,0.6-0.6s0.6,0.3,0.6,0.6V356.9z
			 M248.1,356.9c0,0.3-0.3,0.6-0.6,0.6s-0.6-0.3-0.6-0.6v-6.2c0-0.3,0.3-0.6,0.6-0.6s0.6,0.3,0.6,0.6V356.9z M250.6,356.9
			c0,0.3-0.3,0.6-0.6,0.6s-0.6-0.3-0.6-0.6v-6.2c0-0.3,0.3-0.6,0.6-0.6s0.6,0.3,0.6,0.6V356.9L250.6,356.9z"/>
	</g>
</g>
<path class="st2" d="M269.5,349.5v-3c0-0.8,0.7-1.5,1.5-1.5h7.5c0.8,0,1.5,0.7,1.5,1.5v7.5c0,0.8-0.7,1.5-1.5,1.5h-3v3
	c0,0.8-0.7,1.5-1.5,1.5h-7.5c-0.8,0-1.5-0.7-1.5-1.5V351c0-0.8,0.7-1.5,1.5-1.5H269.5z M271,349.5h3c0.8,0,1.5,0.7,1.5,1.5v3h3v-7.5
	H271V349.5z M266.5,351v7.5h7.5V351H266.5z M269.5,354v-1.5h1.5v1.5h1.5v1.5H271v1.5h-1.5v-1.5H268V354H269.5z"/>
<g>
	<path class="st2" d="M295.5,356.9l-0.8,0.8c-0.7,0.7-1.7,0.7-2.4,0c-0.3-0.3-0.5-0.7-0.5-1.2s0.2-0.9,0.5-1.2l2.8-2.8
		c0.6-0.6,1.7-1.4,2.5-0.6c0.4,0.4,1,0.4,1.3,0c0.4-0.4,0.4-1,0-1.3c-1.3-1.3-3.3-1.1-5.1,0.6L291,354c-0.7,0.7-1,1.6-1,2.5
		s0.4,1.8,1,2.5c0.7,0.7,1.6,1,2.5,1s1.8-0.3,2.5-1l0.8-0.8c0.4-0.4,0.4-0.9,0-1.3C296.4,356.5,295.9,356.5,295.5,356.9z M304,346.1
		c-1.4-1.4-3.5-1.5-4.8-0.2l-0.9,0.9c-0.4,0.4-0.4,0.9,0,1.3s1,0.4,1.3,0l0.9-0.9c0.7-0.7,1.6-0.4,2.2,0.2c0.3,0.3,0.5,0.7,0.5,1.2
		c0,0.4-0.2,0.9-0.5,1.2l-3,3c-1.4,1.4-2,0.7-2.3,0.4c-0.4-0.4-1-0.4-1.3,0c-0.4,0.4-0.4,1,0,1.3c0.6,0.6,1.3,0.9,2.1,0.9
		c0.9,0,1.9-0.5,2.8-1.4l3-3c0.7-0.7,1-1.6,1-2.5C305,347.7,304.6,346.8,304,346.1z"/>
</g>
<g>
	<path id="a_2_" class="st2" d="M316.7,349.8l3.3,3.3l3.3-3.3l0,0c0.4-0.4,1-0.4,1.4,0s0.4,1,0,1.4l-4,4c-0.4,0.4-1,0.4-1.4,0l-4-4
		l0,0c-0.4-0.4-0.4-1,0-1.4C315.7,349.4,316.3,349.4,316.7,349.8L316.7,349.8z"/>
</g>
<path class="st25" d="M261.6,313.1l-2.8-2.8c-0.2-0.2-0.6-0.4-0.9-0.4H254c-0.3,0-0.7,0.1-0.9,0.4l-2.8,2.8
	c-0.2,0.2-0.4,0.6-0.4,0.9v3.9c0,0.3,0.1,0.7,0.4,0.9l2.8,2.8c0.2,0.2,0.6,0.4,0.9,0.4h3.9c0.3,0,0.7-0.1,0.9-0.4l2.8-2.8
	c0.2-0.2,0.4-0.6,0.4-0.9V314C262,313.7,261.9,313.4,261.6,313.1z M256,319.7c-0.5,0-1-0.4-1-1s0.4-1,1-1c0.5,0,1,0.4,1,1
	S256.5,319.7,256,319.7z M257,316.3c0,0.5-0.4,0.7-1,0.7c-0.5,0-1-0.2-1-0.7v-3.6c0-0.5,0.4-0.7,1-0.7c0.5,0,1,0.2,1,0.7V316.3z"/>
<g>
	<path class="st1" d="M20,370v18h18v-18H20z M37,387H21v-16h16V387z"/>
	<rect x="22.3" y="372.3" class="st1" width="3.6" height="13.4"/>
	<rect x="27.2" y="372.3" class="st1" width="3.6" height="13.4"/>
	<rect x="32.1" y="372.3" class="st1" width="3.6" height="13.4"/>
</g>
<g>
	<g>
		<path class="st1" d="M0,388h18v-18H0V388z M17,371v16H1v-16H17z"/>
		<rect x="2.3" y="382.1" class="st1" width="13.4" height="3.6"/>
		<rect x="2.3" y="377.2" class="st1" width="13.4" height="3.6"/>
		<rect x="2.3" y="372.3" class="st1" width="13.4" height="3.6"/>
	</g>
</g>
<g>
	<g>
		<path class="st1" d="M40,383h18v-8.1H40V383z M41.1,376h15.8v6H41.1V376z"/>
		<rect x="40" y="384.5" class="st1" width="18" height="3.5"/>
		<rect x="40" y="370" class="st1" width="18" height="3.5"/>
	</g>
</g>
<g>
	<rect x="94.2" y="374.6" class="st1" width="3.8" height="13.4"/>
	<g>
		<rect x="80" y="374.6" class="st1" width="12.5" height="13.4"/>
		<rect x="80" y="370" class="st1" width="18" height="3.5"/>
	</g>
</g>
<g>
	<g>
		<rect x="65.5" y="374.6" class="st1" width="12.5" height="13.4"/>
		<rect x="60" y="374.6" class="st1" width="3.8" height="13.4"/>
	</g>
	<g>
		<rect x="60" y="370" class="st1" width="18" height="3.5"/>
	</g>
</g>
<polygon class="st2" points="359,346.3 357.7,345 352,350.7 346.3,345 345,346.3 350.7,352 345,357.7 346.3,359 352,353.3 
	357.7,359 359,357.7 353.3,352 "/>
<g>
	<path id="a_3_" class="st2" d="M215.7,371.7l-3.3,3.3l3.3,3.3l0,0c0.4,0.4,0.4,1,0,1.4s-1,0.4-1.4,0l-4-4c-0.4-0.4-0.4-1,0-1.4l4-4
		l0,0c0.4-0.4,1-0.4,1.4,0C216.1,370.7,216.1,371.3,215.7,371.7L215.7,371.7z"/>
</g>
<polygon class="st2" points="235,373.2 233.8,372 228.5,377.3 223.2,372 222,373.2 227.3,378.5 222,383.8 223.2,385 228.5,379.7 
	233.8,385 235,383.8 229.7,378.5 "/>
<path class="st14" d="M194.3,361.8h-6.1v-6.1c0-0.4-0.3-0.7-0.7-0.7s-0.7,0.3-0.7,0.7v6.1h-6.1c-0.4,0-0.7,0.3-0.7,0.7
	c0,0.4,0.3,0.7,0.7,0.7h6.1v6.1c0,0.4,0.3,0.7,0.7,0.7s0.7-0.3,0.7-0.7v-6.1h6.1c0.4,0,0.7-0.3,0.7-0.7S194.7,361.8,194.3,361.8z"/>
<g>
	<g>
		<path class="st12" d="M130.2,342.6l3.3,3.2c0,0,0,0,0.1,0l0,0l0,0l0,0l0,0l0,0l0,0l0,0l0,0l0,0l0,0l0,0l0,0l0,0l0,0l0,0l0,0l0,0
			l0,0l0,0l0,0l0,0l0,0l0,0l0,0l0,0l0,0l0,0l0,0l0,0l0,0l0,0l0,0l0,0l0,0l0,0l0,0l0,0l0,0l0,0l0,0c0,0,0,0,0.1,0l3.3-3.2
			c0.3-0.3,0.3-0.7,0-1s-0.7-0.3-1,0l-2,2v-4.4c0-0.4-0.3-0.7-0.7-0.7s-0.7,0.3-0.7,0.7v4.4l-2-2c-0.3-0.3-0.7-0.3-1,0
			C129.9,341.9,129.9,342.3,130.2,342.6z"/>
		<path class="st12" d="M130.2,333.4l3.3-3.2c0,0,0,0,0.1,0l0,0l0,0l0,0l0,0l0,0l0,0l0,0l0,0l0,0l0,0l0,0l0,0l0,0l0,0l0,0l0,0l0,0
			l0,0l0,0l0,0l0,0l0,0l0,0l0,0l0,0l0,0l0,0l0,0l0,0l0,0l0,0l0,0l0,0l0,0l0,0l0,0l0,0l0,0l0,0l0,0c0,0,0,0,0.1,0l3.3,3.2
			c0.3,0.3,0.3,0.7,0,1s-0.7,0.3-1,0l-2-2v4.4c0,0.4-0.3,0.7-0.7,0.7s-0.7-0.3-0.7-0.7v-4.4l-2,2c-0.3,0.3-0.7,0.3-1,0
			C129.9,334.1,129.9,333.7,130.2,333.4z"/>
	</g>
	<g>
		<path class="st12" d="M140.2,341.9l3.3-3.2c0,0,0,0,0.1,0l0,0l0,0l0,0l0,0l0,0l0,0l0,0l0,0l0,0l0,0l0,0l0,0l0,0l0,0l0,0l0,0l0,0
			l0,0l0,0l0,0l0,0l0,0l0,0l0,0l0,0l0,0l0,0l0,0l0,0l0,0l0,0l0,0l0,0l0,0l0,0l0,0l0,0l0,0l0,0l0,0c0,0,0,0,0.1,0l3.3,3.2
			c0.3,0.3,0.3,0.7,0,1s-0.7,0.3-1,0l-2-2v4.4c0,0.4-0.3,0.7-0.7,0.7s-0.7-0.3-0.7-0.7v-4.4l-2,2c-0.3,0.3-0.7,0.3-1,0
			C139.9,342.7,139.9,342.2,140.2,341.9z"/>
		<path class="st12" d="M140.2,334.1l3.3,3.2c0,0,0,0,0.1,0l0,0l0,0l0,0l0,0l0,0l0,0l0,0l0,0l0,0l0,0l0,0l0,0l0,0l0,0l0,0l0,0l0,0
			l0,0l0,0l0,0l0,0l0,0l0,0l0,0l0,0l0,0l0,0l0,0l0,0l0,0l0,0l0,0l0,0l0,0l0,0l0,0l0,0l0,0l0,0l0,0c0,0,0,0,0.1,0l3.3-3.2
			c0.3-0.3,0.3-0.7,0-1s-0.7-0.3-1,0l-2,2v-4.4c0-0.4-0.3-0.7-0.7-0.7s-0.7,0.3-0.7,0.7v4.4l-2-2c-0.3-0.3-0.7-0.3-1,0
			C139.9,333.3,139.9,333.8,140.2,334.1z"/>
	</g>
</g>
<path class="st14" d="M206.7,362.3h-4.4v4.4c0,0.1-0.1,0.3-0.3,0.3h-2c-0.1,0-0.3-0.1-0.3-0.3v-4.4h-4.4c-0.1,0-0.3-0.1-0.3-0.3v-2
	c0-0.1,0.1-0.3,0.3-0.3h4.4v-4.4c0-0.1,0.1-0.3,0.3-0.3h2.1c0.1,0,0.3,0.1,0.3,0.3v4.4h4.4c0.1,0,0.3,0.1,0.3,0.3v2.1
	C207,362.2,206.9,362.3,206.7,362.3z"/>
<g>
	<path class="st12" d="M274,315.1c0-0.6,0.5-1.1,1.1-1.1h11.7c0.6,0,1.1,0.5,1.1,1.1s-0.5,1.1-1.1,1.1h-11.7
		C274.5,316.3,274,315.8,274,315.1z M286.9,318.9h-11.7c-0.6,0-1.1,0.5-1.1,1.1s0.5,1.1,1.1,1.1h11.7c0.6,0,1.1-0.5,1.1-1.1
		S287.5,318.9,286.9,318.9z M286.9,323.7h-11.7c-0.6,0-1.1,0.5-1.1,1.1s0.5,1.1,1.1,1.1h11.7c0.6,0,1.1-0.5,1.1-1.1
		S287.5,323.7,286.9,323.7z"/>
</g>
<g>
	<g>
		<path class="st13" d="M306.7,312h-1h-1.6l-0.2-0.6c-0.2-0.8-0.9-1.4-1.8-1.4h-2c-0.8,0-1.5,0.6-1.8,1.4l-0.2,0.6h-1.6h-1
			c-0.2,0-0.5,0.2-0.5,0.5c0,0.2,0.2,0.5,0.5,0.5h0.6l0.4,7.6c0.1,0.8,0.7,1.4,1.5,1.4h6c0.8,0,1.4-0.6,1.5-1.4l0.4-7.6h0.6
			c0.2,0,0.5-0.2,0.5-0.5S306.9,312,306.7,312z M299.5,311.6c0.1-0.3,0.4-0.6,0.7-0.6h2c0.3,0,0.6,0.2,0.7,0.6l0.1,0.4h-3.8
			L299.5,311.6z M299.8,319.5c0,0.2-0.2,0.5-0.5,0.5c-0.2,0-0.5-0.2-0.5-0.5v-5c0-0.2,0.2-0.5,0.5-0.5c0.2,0,0.5,0.2,0.5,0.5V319.5z
			 M301.7,319.5c0,0.2-0.2,0.5-0.5,0.5c-0.2,0-0.5-0.2-0.5-0.5v-5c0-0.2,0.2-0.5,0.5-0.5c0.2,0,0.5,0.2,0.5,0.5V319.5z M303.7,319.5
			c0,0.2-0.2,0.5-0.5,0.5c-0.2,0-0.5-0.2-0.5-0.5v-5c0-0.2,0.2-0.5,0.5-0.5c0.2,0,0.5,0.2,0.5,0.5V319.5L303.7,319.5z"/>
	</g>
</g>
<g>
	<g>
		<path class="st12" d="M317,310c-3.9,0-7,3.1-7,7s3.1,7,7,7s7-3.1,7-7S320.9,310,317,310z M317,322.6c-3.1,0-5.6-2.5-5.6-5.6
			s2.5-5.6,5.6-5.6s5.6,2.5,5.6,5.6S320.1,322.6,317,322.6z"/>
		<path class="st12" d="M319.6,316.3h-2v-2c0-0.4-0.3-0.7-0.7-0.7c-0.4,0-0.7,0.3-0.7,0.7v2h-2c-0.4,0-0.7,0.3-0.7,0.7
			c0,0.4,0.3,0.7,0.7,0.7h2v2c0,0.4,0.3,0.7,0.7,0.7c0.4,0,0.7-0.3,0.7-0.7v-2h2c0.4,0,0.7-0.3,0.7-0.7
			C320.3,316.6,320,316.3,319.6,316.3z"/>
	</g>
	<g>
		<path class="st12" d="M317,325c-3.9,0-7,3.1-7,7s3.1,7,7,7s7-3.1,7-7S320.9,325,317,325z M317,337.6c-3.1,0-5.6-2.5-5.6-5.6
			s2.5-5.6,5.6-5.6s5.6,2.5,5.6,5.6S320.1,337.6,317,337.6z"/>
		<path class="st12" d="M319.6,331.3h-5.3c-0.4,0-0.7,0.3-0.7,0.7c0,0.4,0.3,0.7,0.7,0.7h5.3c0.4,0,0.7-0.3,0.7-0.7
			C320.3,331.6,320,331.3,319.6,331.3z"/>
	</g>
	<g>
		<path class="st12" d="M331,311.4h2.1c0.4,0,0.7-0.3,0.7-0.7c0-0.4-0.3-0.7-0.7-0.7H331c-0.4,0-0.7,0.3-0.7,0.7
			S330.6,311.4,331,311.4z"/>
		<path class="st12" d="M333,316.3h-2c-0.4,0-0.7,0.3-0.7,0.7s0.3,0.7,0.7,0.7h2.1c0.4,0,0.7-0.3,0.7-0.7S333.4,316.3,333,316.3z"/>
		<path class="st12" d="M333,322.6h-2c-0.4,0-0.7,0.3-0.7,0.7c0,0.4,0.3,0.7,0.7,0.7h2.1c0.4,0,0.7-0.3,0.7-0.7
			S333.4,322.6,333,322.6z"/>
	</g>
</g>
<polygon class="st12" points="254.5,366.8 253.2,365.5 247.5,371.2 241.8,365.5 240.5,366.8 246.2,372.5 240.5,378.2 241.8,379.5 
	247.5,373.8 253.2,379.5 254.5,378.2 248.8,372.5 "/>
<g>
	<g>
		<path class="st12" d="M279.4,367.5h-1.3h-2l-0.2-0.8c-0.2-1-1.1-1.7-2.2-1.7h-2.5c-1,0-1.9,0.7-2.2,1.7l-0.2,0.8h-2h-1.3
			c-0.3,0-0.6,0.3-0.6,0.6c0,0.3,0.3,0.6,0.6,0.6h0.7l0.5,9.5c0.1,1,0.9,1.8,1.9,1.8h7.6c1,0,1.8-0.8,1.9-1.8l0.5-9.5h0.7
			c0.3,0,0.6-0.3,0.6-0.6S279.7,367.5,279.4,367.5z M270.3,367c0.1-0.4,0.5-0.7,0.9-0.7h2.5c0.4,0,0.8,0.3,0.9,0.7l0.1,0.5H270
			L270.3,367z M270.6,376.9c0,0.3-0.3,0.6-0.6,0.6s-0.6-0.3-0.6-0.6v-6.2c0-0.3,0.3-0.6,0.6-0.6s0.6,0.3,0.6,0.6V376.9z
			 M273.1,376.9c0,0.3-0.3,0.6-0.6,0.6s-0.6-0.3-0.6-0.6v-6.2c0-0.3,0.3-0.6,0.6-0.6s0.6,0.3,0.6,0.6V376.9z M275.6,376.9
			c0,0.3-0.3,0.6-0.6,0.6s-0.6-0.3-0.6-0.6v-6.2c0-0.3,0.3-0.6,0.6-0.6s0.6,0.3,0.6,0.6V376.9L275.6,376.9z"/>
	</g>
</g>
<path class="st12" d="M294.5,369.5v-3c0-0.8,0.7-1.5,1.5-1.5h7.5c0.8,0,1.5,0.7,1.5,1.5v7.5c0,0.8-0.7,1.5-1.5,1.5h-3v3
	c0,0.8-0.7,1.5-1.5,1.5h-7.5c-0.8,0-1.5-0.7-1.5-1.5V371c0-0.8,0.7-1.5,1.5-1.5H294.5z M296,369.5h3c0.8,0,1.5,0.7,1.5,1.5v3h3v-7.5
	H296V369.5z M291.5,371v7.5h7.5V371H291.5z M294.5,374v-1.5h1.5v1.5h1.5v1.5H296v1.5h-1.5v-1.5H293V374H294.5z"/>
<g>
	<path class="st12" d="M320.5,376.9l-0.8,0.8c-0.7,0.7-1.7,0.7-2.4,0c-0.3-0.3-0.5-0.7-0.5-1.2s0.2-0.9,0.5-1.2l2.8-2.8
		c0.6-0.6,1.7-1.4,2.5-0.6c0.4,0.4,1,0.4,1.3,0c0.4-0.4,0.4-1,0-1.3c-1.3-1.3-3.3-1.1-5.1,0.6L316,374c-0.7,0.7-1,1.6-1,2.5
		s0.4,1.8,1,2.5c0.7,0.7,1.6,1,2.5,1s1.8-0.3,2.5-1l0.8-0.8c0.4-0.4,0.4-0.9,0-1.3C321.4,376.5,320.9,376.5,320.5,376.9z M329,366.1
		c-1.4-1.4-3.5-1.5-4.8-0.2l-0.9,0.9c-0.4,0.4-0.4,0.9,0,1.3s1,0.4,1.3,0l0.9-0.9c0.7-0.7,1.6-0.4,2.2,0.2c0.3,0.3,0.5,0.7,0.5,1.2
		c0,0.4-0.2,0.9-0.5,1.2l-3,3c-1.4,1.4-2,0.7-2.3,0.4c-0.4-0.4-1-0.4-1.3,0c-0.4,0.4-0.4,1,0,1.3c0.6,0.6,1.3,0.9,2.1,0.9
		c0.9,0,1.9-0.5,2.8-1.4l3-3c0.7-0.7,1-1.6,1-2.5C330,367.7,329.6,366.8,329,366.1z"/>
</g>
<g>
	<path id="a_4_" class="st12" d="M346.7,374.8l3.3,3.3l3.3-3.3l0,0c0.4-0.4,1-0.4,1.4,0s0.4,1,0,1.4l-4,4c-0.4,0.4-1,0.4-1.4,0l-4-4
		l0,0c-0.4-0.4-0.4-1,0-1.4C345.7,374.4,346.3,374.4,346.7,374.8L346.7,374.8z"/>
</g>
<polygon class="st12" points="29,414.5 27.5,413 20.5,420 13.5,413 12,414.5 19,421.5 12,428.5 13.5,430 20.5,423 27.5,430 
	29,428.5 22,421.5 "/>
<g>
	<g>
		<g>
			<g>
				<g>
					<path class="st26" d="M131.9,418.1h0.9v1.6c0,0.1,0.1,0.2,0.2,0.3c0.1,0.1,0.2,0,0.3,0l3.1-2.5c0.1-0.1,0.1-0.1,0.1-0.2
						s0-0.2-0.1-0.2l-3.1-2.5c-0.1,0-0.1-0.1-0.2-0.1H133c-0.1,0.1-0.2,0.2-0.2,0.3v1.6h-0.9c-0.8,0-1.5-0.7-1.5-1.6V410h-1.8v4.7
						C128.6,416.6,130.1,418.1,131.9,418.1z"/>
				</g>
			</g>
			<rect x="128.6" y="405.9" class="st26" width="1.8" height="4.1"/>
		</g>
		<g>
			<ellipse class="st27" cx="129.6" cy="403.1" rx="3.1" ry="3.1"/>
			<ellipse class="st1" cx="129.6" cy="403.1" rx="0.6" ry="0.6"/>
		</g>
	</g>
	<g>
		<g>
			<g>
				<g>
					<path class="st26" d="M138.1,401.9h-0.9v-1.6c0-0.1-0.1-0.2-0.2-0.3c-0.1-0.1-0.2,0-0.3,0l-3.1,2.5c-0.1,0.1-0.1,0.1-0.1,0.2
						s0,0.2,0.1,0.2l3.1,2.5c0.1,0,0.1,0.1,0.2,0.1h0.1c0.1-0.1,0.2-0.2,0.2-0.3v-1.6h0.9c0.8,0,1.5,0.7,1.5,1.6v4.7h1.8v-4.7
						C141.4,403.4,139.9,401.9,138.1,401.9z"/>
				</g>
			</g>
			<rect x="139.6" y="410" class="st26" width="1.8" height="4.1"/>
		</g>
		<g>
			<ellipse class="st27" cx="140.4" cy="416.9" rx="3.1" ry="3.1"/>
			<ellipse class="st1" cx="140.4" cy="416.9" rx="0.6" ry="0.6"/>
		</g>
	</g>
</g>
<g id="Order-inhouse-v.3-_x2F_-step1-more" transform="translate(-532.000000, -1260.000000)">
	<g id="icon_x2F_circle-help" transform="translate(532.000000, 1260.000000)">
		<g id="Combined-Shape_9_">
			<path id="path-1_5_" class="st2" d="M378,356c-4.4,0-8-3.6-8-8s3.6-8,8-8s8,3.6,8,8S382.4,356,378,356z M378,354.5
				c3.6,0,6.5-2.9,6.5-6.5s-2.9-6.5-6.5-6.5s-6.5,2.9-6.5,6.5S374.4,354.5,378,354.5z M376.6,346.1c-0.1,0.4-0.5,0.6-0.9,0.4
				s-0.6-0.5-0.4-0.9c0.5-1.3,1.8-2.1,3.2-1.9s2.4,1.5,2.4,2.9c0,0.9-0.6,1.7-1.4,2.2c-0.5,0.3-0.9,0.5-1.3,0.6s-0.8-0.1-0.9-0.5
				s0.1-0.8,0.5-0.9c0,0,0.1-0.1,0.3-0.1c0.2-0.1,0.4-0.2,0.6-0.3c0.5-0.3,0.8-0.7,0.8-1c0-0.7-0.5-1.3-1.2-1.4
				C377.5,345,376.8,345.4,376.6,346.1z M378,352.4c-0.4,0-0.7-0.3-0.7-0.7c0-0.4,0.3-0.7,0.7-0.7s0.7,0.3,0.7,0.7
				C378.7,352,378.4,352.4,378,352.4z"/>
		</g>
	</g>
</g>
<path class="st1" d="M113.5,377.6v-4c0-0.5-0.3-1-0.8-1.2l-3.2-1.2c-0.3-0.1-0.6-0.1-0.9,0l-3.2,1.2c-0.5,0.2-0.8,0.7-0.8,1.2v4
	l-3.7,1.4c-0.5,0.2-0.8,0.7-0.8,1.2v3.8c0,0.5,0.3,0.9,0.7,1.1l3.5,1.7c0.4,0.2,0.8,0.2,1.1,0l3.7-1.9l3.7,1.9
	c0.4,0.2,0.8,0.2,1.1,0l3.5-1.7c0.4-0.2,0.7-0.7,0.7-1.1v-3.8c0-0.5-0.3-1-0.8-1.2L113.5,377.6z M109.4,378.8v-3.5l3.2-1.1v3.4
	L109.4,378.8L109.4,378.8z M105.3,373.3l3.7-1.4l3.7,1.4l0,0l-3.7,1.3L105.3,373.3L105.3,373.3z M105.3,374.2l3.2,1.1v3.5l-3.2-1.1
	V374.2z M104.3,385.8l-3.4-1.7v-3.3l3.4,1.4V385.8z M100.9,379.9L100.9,379.9l3.8-1.5l3.8,1.4l0,0l-3.8,1.5
	C104.7,381.4,100.9,379.9,100.9,379.9z M105.2,382.2l3.4-1.4v3.3l-3.4,1.7V382.2z M112.8,385.8l-3.4-1.7v-3.3l3.4,1.4V385.8
	L112.8,385.8z M117.1,384.1l-3.4,1.7v-3.6l3.4-1.4V384.1z M117.1,379.9l-3.8,1.6l-3.8-1.5l0,0l3.8-1.4L117.1,379.9L117.1,379.9z"/>
<path class="st2" d="M168.5,401.5c0,3.9-3.1,7-7,7s-7-3.1-7-7s3.1-7,7-7S168.5,397.6,168.5,401.5z M160.7,405.2l5.2-5.2
	c0.2-0.2,0.2-0.5,0-0.6l-0.6-0.6c-0.2-0.2-0.5-0.2-0.6,0l-4.2,4.2l-2-2c-0.2-0.2-0.5-0.2-0.6,0l-0.6,0.6c-0.2,0.2-0.2,0.5,0,0.6
	l2.9,2.9C160.2,405.4,160.5,405.4,160.7,405.2L160.7,405.2z"/>
<path class="st28" d="M168.5,431.5c0,3.9-3.1,7-7,7s-7-3.1-7-7s3.1-7,7-7S168.5,427.6,168.5,431.5z M160.7,435.2l5.2-5.2
	c0.2-0.2,0.2-0.5,0-0.6l-0.6-0.6c-0.2-0.2-0.5-0.2-0.6,0l-4.2,4.2l-2-2c-0.2-0.2-0.5-0.2-0.6,0l-0.6,0.6c-0.2,0.2-0.2,0.5,0,0.6
	l2.9,2.9C160.2,435.4,160.5,435.4,160.7,435.2L160.7,435.2z"/>
<path class="st2" d="M188.5,391c-4.1,0-7.5,3.4-7.5,7.5s3.4,7.5,7.5,7.5s7.5-3.4,7.5-7.5S192.6,391,188.5,391z M192.4,394.6
	c2,2,2.1,5,0.6,7.1l-7.8-7.8C187.4,392.4,190.5,392.6,192.4,394.6z M184.6,402.4c-2-2-2.1-5-0.6-7.1l7.8,7.8
	C189.6,404.6,186.5,404.4,184.6,402.4z"/>
<path class="st12" d="M188.5,411c-4.1,0-7.5,3.4-7.5,7.5s3.4,7.5,7.5,7.5s7.5-3.4,7.5-7.5S192.6,411,188.5,411z M192.4,414.6
	c2,2,2.1,5,0.6,7.1l-7.8-7.8C187.4,412.4,190.5,412.6,192.4,414.6z M184.6,422.4c-2-2-2.1-5-0.6-7.1l7.8,7.8
	C189.6,424.6,186.5,424.4,184.6,422.4z"/>
<path class="st29" d="M216.3,403.9c0.5,0.9-0.1,2.1-1.2,2.1h-13.3c-1,0-1.7-1.2-1.2-2.1l6.7-12.2c0.5-0.9,1.8-0.9,2.3,0L216.3,403.9
	L216.3,403.9z M208.5,401.4c-0.7,0-1.3,0.6-1.3,1.4c0,0.7,0.6,1.4,1.3,1.4s1.3-0.6,1.3-1.4S209.2,401.4,208.5,401.4z M207.3,396.5
	l0.2,4c0,0.2,0.2,0.3,0.3,0.3h1.3c0.2,0,0.3-0.1,0.3-0.3l0.2-4c0-0.2-0.1-0.4-0.3-0.4h-1.8C207.4,396.1,207.3,396.3,207.3,396.5
	L207.3,396.5z"/>
<g>
	<path class="st1" d="M375.5,376.9l-0.8,0.8c-0.7,0.7-1.7,0.7-2.4,0c-0.3-0.3-0.5-0.7-0.5-1.2s0.2-0.9,0.5-1.2l2.8-2.8
		c0.6-0.6,1.7-1.4,2.5-0.6c0.4,0.4,1,0.4,1.3,0c0.4-0.4,0.4-1,0-1.3c-1.3-1.3-3.3-1.1-5.1,0.6L371,374c-0.7,0.7-1,1.6-1,2.5
		s0.4,1.8,1,2.5c0.7,0.7,1.6,1,2.5,1s1.8-0.3,2.5-1l0.8-0.8c0.4-0.4,0.4-0.9,0-1.3C376.4,376.5,375.9,376.5,375.5,376.9z M384,366.1
		c-1.4-1.4-3.5-1.5-4.8-0.2l-0.9,0.9c-0.4,0.4-0.4,0.9,0,1.3s1,0.4,1.3,0l0.9-0.9c0.7-0.7,1.6-0.4,2.2,0.2c0.3,0.3,0.5,0.7,0.5,1.2
		c0,0.4-0.2,0.9-0.5,1.2l-3,3c-1.4,1.4-2,0.7-2.3,0.4c-0.4-0.4-1-0.4-1.3,0c-0.4,0.4-0.4,1,0,1.3c0.6,0.6,1.3,0.9,2.1,0.9
		c0.9,0,1.9-0.5,2.8-1.4l3-3c0.7-0.7,1-1.6,1-2.5C385,367.7,384.6,366.8,384,366.1z"/>
</g>
<g>
	<circle class="st18" cx="226.5" cy="406.5" r="6.5"/>
	<g>
		<rect x="225.6" y="402.8" class="st1" width="1.9" height="4.6"/>
		<rect x="225.6" y="408.4" class="st1" width="1.9" height="1.9"/>
	</g>
</g>
<g>
	<circle class="st18" cx="248" cy="408" r="8"/>
	<g>
		<rect x="246.9" y="403.4" class="st1" width="2.3" height="5.7"/>
		<rect x="246.9" y="410.3" class="st1" width="2.3" height="2.3"/>
	</g>
</g>
<path class="st2" d="M272.5,401.5l-1-1c-0.6-0.6-1.7-0.6-2.3,0l-8.9,8.9l-0.3,2.9c0,0.4,0.3,0.7,0.7,0.7l2.9-0.3l8.9-8.9
	C273.2,403.2,273.2,402.2,272.5,401.5L272.5,401.5z M264.2,408.9c0.2,0.2,0.4,0.2,0.6,0l4.6-4.6l0.8,0.8l-5.7,5.7v-0.9h-1.2v-1.2
	h-0.9l5.7-5.7l0.8,0.8l-4.6,4.6C264,408.5,264,408.8,264.2,408.9L264.2,408.9z M263.2,412l-1.5,0.2l-0.8-0.8l0.2-1.5l0.5-0.5h0.9
	v1.2h1.2v0.9L263.2,412z M271.9,403.3l-1.3,1.3l-2.1-2.1l1.3-1.3c0.3-0.3,0.8-0.3,1.1,0l1,1C272.3,402.4,272.3,402.9,271.9,403.3
	L271.9,403.3z"/>
<path class="st12" d="M287.5,401.5l-1-1c-0.6-0.6-1.7-0.6-2.3,0l-8.9,8.9l-0.3,2.9c0,0.4,0.3,0.7,0.7,0.7l2.9-0.3l8.9-8.9
	C288.2,403.2,288.2,402.2,287.5,401.5L287.5,401.5z M279.2,408.9c0.2,0.2,0.4,0.2,0.6,0l4.6-4.6l0.8,0.8l-5.7,5.7v-0.9h-1.2v-1.2
	h-0.9l5.7-5.7l0.8,0.8l-4.6,4.6C279,408.5,279,408.8,279.2,408.9L279.2,408.9z M278.2,412l-1.5,0.2l-0.8-0.8l0.2-1.5l0.5-0.5h0.9
	v1.2h1.2v0.9L278.2,412z M286.9,403.3l-1.3,1.3l-2.1-2.1l1.3-1.3c0.3-0.3,0.8-0.3,1.1,0l1,1C287.3,402.4,287.3,402.9,286.9,403.3
	L286.9,403.3z"/>
<g id="Order-inhouse-v.3-_x2F_-step1-more_1_" transform="translate(-532.000000, -1260.000000)">
	<g id="icon_x2F_circle-help_1_" transform="translate(532.000000, 1260.000000)">
		<g id="Combined-Shape_1_">
			<path id="path-1_1_" class="st12" d="M298,416c-4.4,0-8-3.6-8-8s3.6-8,8-8s8,3.6,8,8S302.4,416,298,416z M298,414.5
				c3.6,0,6.5-2.9,6.5-6.5s-2.9-6.5-6.5-6.5s-6.5,2.9-6.5,6.5S294.4,414.5,298,414.5z M296.6,406.1c-0.1,0.4-0.5,0.6-0.9,0.4
				s-0.6-0.5-0.4-0.9c0.5-1.3,1.8-2.1,3.2-1.9s2.4,1.5,2.4,2.9c0,0.9-0.6,1.7-1.4,2.2c-0.5,0.3-0.9,0.5-1.3,0.6s-0.8-0.1-0.9-0.5
				s0.1-0.8,0.5-0.9c0,0,0.1-0.1,0.3-0.1c0.2-0.1,0.4-0.2,0.6-0.3c0.5-0.3,0.8-0.7,0.8-1c0-0.7-0.5-1.3-1.2-1.4
				C297.5,405,296.8,405.4,296.6,406.1z M298,412.4c-0.4,0-0.7-0.3-0.7-0.7c0-0.4,0.3-0.7,0.7-0.7s0.7,0.3,0.7,0.7
				C298.7,412,298.4,412.4,298,412.4z"/>
		</g>
	</g>
</g>
<polygon class="st28" points="194.5,431.8 193.2,430.5 187.5,436.2 181.8,430.5 180.5,431.8 186.2,437.5 180.5,443.2 181.8,444.5 
	187.5,438.8 193.2,444.5 194.5,443.2 188.8,437.5 "/>
<path class="st2" d="M323,405.5h-4.5V401c0-0.6-0.4-1-1-1h-1c-0.6,0-1,0.4-1,1v4.5H311c-0.6,0-1,0.4-1,1v1c0,0.6,0.4,1,1,1h4.5v4.5
	c0,0.6,0.4,1,1,1h1c0.6,0,1-0.4,1-1v-4.5h4.5c0.6,0,1-0.4,1-1v-1C324,405.9,323.6,405.5,323,405.5z"/>
<path class="st2" d="M339.5,404.5h2v2c0,0.3,0.2,0.5,0.5,0.5h1c0.3,0,0.5-0.2,0.5-0.5v-2h2c0.3,0,0.5-0.2,0.5-0.5v-1
	c0-0.3-0.2-0.5-0.5-0.5h-2v-2c0-0.3-0.2-0.5-0.5-0.5h-1c-0.3,0-0.5,0.2-0.5,0.5v2h-2c-0.3,0-0.5,0.2-0.5,0.5v1
	C339,404.3,339.2,404.5,339.5,404.5z M345.6,411.4l-1.8-0.8l-5,2.3c-0.2,0.1-0.5,0.2-0.7,0.2c-0.3,0-0.5-0.1-0.7-0.2l-5-2.3
	l-1.8,0.8c-0.5,0.2-0.5,1,0,1.3l7.3,3.3c0.2,0.1,0.5,0.1,0.7,0l7.3-3.3C346.1,412.4,346.1,411.6,345.6,411.4z M330.4,408.6l7.3,3.3
	c0.2,0.1,0.5,0.1,0.7,0l5.7-2.6v-0.6c-0.5,0.1-1,0.2-1.5,0.2c-2.8,0-5-2-5.4-4.7l-6.7,3C329.9,407.6,329.9,408.4,330.4,408.6z"/>
<path class="st2" d="M366.5,400h-15c-0.8,0-1.5,0.7-1.5,1.5v10c0,0.8,0.7,1.5,1.5,1.5h6l-0.5,1.5h-2.3c-0.4,0-0.8,0.3-0.8,0.8
	s0.3,0.8,0.8,0.8h8.5c0.4,0,0.8-0.3,0.8-0.8s-0.3-0.8-0.8-0.8H361l-0.5-1.5h6c0.8,0,1.5-0.7,1.5-1.5v-10
	C368,400.7,367.3,400,366.5,400z M366,411h-14v-9h14V411z"/>
<path class="st2" d="M382.5,400h-11c-0.8,0-1.5,0.7-1.5,1.5v13c0,0.8,0.7,1.5,1.5,1.5h11c0.8,0,1.5-0.7,1.5-1.5v-13
	C384,400.7,383.3,400,382.5,400z M377,415c-0.6,0-1-0.4-1-1s0.4-1,1-1s1,0.4,1,1S377.6,415,377,415z M382.5,411.6
	c0,0.2-0.2,0.4-0.4,0.4h-10.3c-0.2,0-0.4-0.2-0.4-0.4v-9.8c0-0.2,0.2-0.4,0.4-0.4h10.3c0.2,0,0.4,0.2,0.4,0.4V411.6z"/>
<path class="st2" d="M393.5,400h-7c-0.8,0-1.5,0.7-1.5,1.5v13c0,0.8,0.7,1.5,1.5,1.5h7c0.8,0,1.5-0.7,1.5-1.5v-13
	C395,400.7,394.3,400,393.5,400z M390,415c-0.6,0-1-0.4-1-1s0.4-1,1-1s1,0.4,1,1S390.6,415,390,415z M393.5,411.6
	c0,0.2-0.2,0.4-0.4,0.4h-6.3c-0.2,0-0.4-0.2-0.4-0.4v-9.8c0-0.2,0.2-0.4,0.4-0.4h6.3c0.2,0,0.4,0.2,0.4,0.4V411.6z"/>
<path class="st24" d="M216.1,428.7h-3.9v-3.9c0-0.5-0.3-0.9-0.9-0.9h-0.9c-0.5,0-0.9,0.3-0.9,0.9v3.9h-3.9c-0.5,0-0.9,0.3-0.9,0.9
	v0.9c0,0.5,0.3,0.9,0.9,0.9h3.9v3.9c0,0.5,0.3,0.9,0.9,0.9h0.9c0.5,0,0.9-0.3,0.9-0.9v-3.9h3.9c0.5,0,0.9-0.3,0.9-0.9v-0.9
	C217,429.1,216.7,428.7,216.1,428.7z"/>
<path class="st10" d="M236.1,428.7h-3.9v-3.9c0-0.5-0.3-0.9-0.9-0.9h-0.9c-0.5,0-0.9,0.3-0.9,0.9v3.9h-3.9c-0.5,0-0.9,0.3-0.9,0.9
	v0.9c0,0.5,0.3,0.9,0.9,0.9h3.9v3.9c0,0.5,0.3,0.9,0.9,0.9h0.9c0.5,0,0.9-0.3,0.9-0.9v-3.9h3.9c0.5,0,0.9-0.3,0.9-0.9v-0.9
	C237,429.1,236.7,428.7,236.1,428.7z"/>
<polygon class="st1" points="259.5,423.1 258.9,422.5 256,425.4 253.1,422.5 252.5,423.1 255.4,426 252.5,428.9 253.1,429.5 
	256,426.6 258.9,429.5 259.5,428.9 256.6,426 "/>
<g>
	<g>
		<path class="st18" d="M283.5,422.3h-1.2h-1.9l-0.2-0.7c-0.2-0.9-1-1.6-2.1-1.6h-2.3c-0.9,0-1.8,0.7-2.1,1.6l-0.2,0.7h-1.9h-1.2
			c-0.3,0-0.6,0.3-0.6,0.6c0,0.3,0.3,0.6,0.6,0.6h0.7l0.5,8.9c0.1,0.9,0.8,1.7,1.8,1.7h7.1c0.9,0,1.7-0.7,1.8-1.7l0.5-8.9h0.7
			c0.3,0,0.6-0.3,0.6-0.6S283.8,422.3,283.5,422.3z M275,421.9c0.1-0.4,0.5-0.7,0.8-0.7h2.3c0.4,0,0.7,0.3,0.8,0.7l0.1,0.5h-4.4
			L275,421.9z M275.3,431.1c0,0.3-0.3,0.6-0.6,0.6c-0.3,0-0.6-0.3-0.6-0.6v-5.8c0-0.3,0.3-0.6,0.6-0.6c0.3,0,0.6,0.3,0.6,0.6V431.1z
			 M277.7,431.1c0,0.3-0.3,0.6-0.6,0.6s-0.6-0.3-0.6-0.6v-5.8c0-0.3,0.3-0.6,0.6-0.6s0.6,0.3,0.6,0.6V431.1z M280,431.1
			c0,0.3-0.3,0.6-0.6,0.6c-0.3,0-0.6-0.3-0.6-0.6v-5.8c0-0.3,0.3-0.6,0.6-0.6c0.3,0,0.6,0.3,0.6,0.6V431.1L280,431.1z"/>
	</g>
</g>
<polygon class="st12" points="194,451.3 192.7,450 187,455.7 181.3,450 180,451.3 185.7,457 180,462.7 181.3,464 187,458.3 
	192.7,464 194,462.7 188.3,457 "/>
<path class="st12" d="M323,425.5h-4.5V421c0-0.6-0.4-1-1-1h-1c-0.6,0-1,0.4-1,1v4.5H311c-0.6,0-1,0.4-1,1v1c0,0.6,0.4,1,1,1h4.5v4.5
	c0,0.6,0.4,1,1,1h1c0.6,0,1-0.4,1-1v-4.5h4.5c0.6,0,1-0.4,1-1v-1C324,425.9,323.6,425.5,323,425.5z"/>
<path class="st12" d="M339.5,424.5h2v2c0,0.3,0.2,0.5,0.5,0.5h1c0.3,0,0.5-0.2,0.5-0.5v-2h2c0.3,0,0.5-0.2,0.5-0.5v-1
	c0-0.3-0.2-0.5-0.5-0.5h-2v-2c0-0.3-0.2-0.5-0.5-0.5h-1c-0.3,0-0.5,0.2-0.5,0.5v2h-2c-0.3,0-0.5,0.2-0.5,0.5v1
	C339,424.3,339.2,424.5,339.5,424.5z M345.6,431.4l-1.8-0.8l-5,2.3c-0.2,0.1-0.5,0.2-0.7,0.2c-0.3,0-0.5-0.1-0.7-0.2l-5-2.3
	l-1.8,0.8c-0.5,0.2-0.5,1,0,1.3l7.3,3.3c0.2,0.1,0.5,0.1,0.7,0l7.3-3.3C346.1,432.4,346.1,431.6,345.6,431.4z M330.4,428.6l7.3,3.3
	c0.2,0.1,0.5,0.1,0.7,0l5.7-2.6v-0.6c-0.5,0.1-1,0.2-1.5,0.2c-2.8,0-5-2-5.4-4.7l-6.7,3C329.9,427.6,329.9,428.4,330.4,428.6z"/>
<path class="st12" d="M366.5,420h-15c-0.8,0-1.5,0.7-1.5,1.5v10c0,0.8,0.7,1.5,1.5,1.5h6l-0.5,1.5h-2.3c-0.4,0-0.8,0.3-0.8,0.8
	s0.3,0.8,0.8,0.8h8.5c0.4,0,0.8-0.3,0.8-0.8s-0.3-0.8-0.8-0.8H361l-0.5-1.5h6c0.8,0,1.5-0.7,1.5-1.5v-10
	C368,420.7,367.3,420,366.5,420z M366,431h-14v-9h14V431z"/>
<path class="st12" d="M382.5,420h-11c-0.8,0-1.5,0.7-1.5,1.5v13c0,0.8,0.7,1.5,1.5,1.5h11c0.8,0,1.5-0.7,1.5-1.5v-13
	C384,420.7,383.3,420,382.5,420z M377,435c-0.6,0-1-0.4-1-1s0.4-1,1-1s1,0.4,1,1S377.6,435,377,435z M382.5,431.6
	c0,0.2-0.2,0.4-0.4,0.4h-10.3c-0.2,0-0.4-0.2-0.4-0.4v-9.8c0-0.2,0.2-0.4,0.4-0.4h10.3c0.2,0,0.4,0.2,0.4,0.4V431.6z"/>
<path class="st12" d="M393.5,420h-7c-0.8,0-1.5,0.7-1.5,1.5v13c0,0.8,0.7,1.5,1.5,1.5h7c0.8,0,1.5-0.7,1.5-1.5v-13
	C395,420.7,394.3,420,393.5,420z M390,435c-0.6,0-1-0.4-1-1s0.4-1,1-1s1,0.4,1,1S390.6,435,390,435z M393.5,431.6
	c0,0.2-0.2,0.4-0.4,0.4h-6.3c-0.2,0-0.4-0.2-0.4-0.4v-9.8c0-0.2,0.2-0.4,0.4-0.4h6.3c0.2,0,0.4,0.2,0.4,0.4V431.6z"/>
<path class="st12" d="M314,73.7l-3.4-3.4c0.7-1,1.1-2.2,1.1-3.5c0-3.2-2.6-5.9-5.9-5.9c-3.2,0-5.9,2.6-5.9,5.9s2.6,5.9,5.9,5.9
	c1.3,0,2.5-0.4,3.5-1.1l3.4,3.4L314,73.7z M306,70.9c-2.3,0-4.1-1.8-4.1-4.1s1.8-4.1,4.1-4.1c2.3,0,4.1,1.8,4.1,4.1
	S308.1,70.9,306,70.9z"/>
<g>
	<rect x="210.8" y="450.8" class="st12" width="8.8" height="3.5"/>
	<rect x="210.8" y="456" class="st12" width="8.8" height="3.5"/>
	<g>
		<rect x="205.5" y="445.5" class="st12" width="14" height="3.5"/>
		<rect x="205.5" y="450.8" class="st12" width="3.5" height="8.8"/>
	</g>
</g>
<g>
	<rect x="230.8" y="450.8" class="st2" width="8.8" height="3.5"/>
	<rect x="225.5" y="445.5" class="st2" width="14" height="3.5"/>
	<rect x="230.8" y="456" class="st2" width="8.8" height="3.5"/>
	<rect x="225.5" y="450.8" class="st2" width="3.5" height="8.8"/>
</g>
<polygon class="st1" points="258,446.2 256.8,445 251.5,450.3 246.2,445 245,446.2 250.3,451.5 245,456.8 246.2,458 251.5,452.7 
	256.8,458 258,456.8 252.7,451.5 "/>
<g>
	<g>
		<path class="st0" d="M191.6,327h-1H189l-0.2-0.6c-0.2-0.8-0.9-1.4-1.8-1.4h-2c-0.8,0-1.5,0.6-1.8,1.4L183,327h-1.6h-1
			c-0.2,0-0.5,0.2-0.5,0.5c0,0.2,0.2,0.5,0.5,0.5h0.6l0.4,7.6c0.1,0.8,0.7,1.4,1.5,1.4h6.1c0.8,0,1.4-0.6,1.5-1.4l0.4-7.6h0.6
			c0.2,0,0.5-0.2,0.5-0.5S191.8,327,191.6,327z M184.3,326.6c0.1-0.3,0.4-0.6,0.7-0.6h2c0.3,0,0.6,0.2,0.7,0.6l0.1,0.4H184
			L184.3,326.6z M184.6,334.5c0,0.2-0.2,0.5-0.5,0.5s-0.5-0.2-0.5-0.5v-5c0-0.2,0.2-0.5,0.5-0.5s0.5,0.2,0.5,0.5V334.5z
			 M186.6,334.5c0,0.2-0.2,0.5-0.5,0.5s-0.5-0.2-0.5-0.5v-5c0-0.2,0.2-0.5,0.5-0.5s0.5,0.2,0.5,0.5V334.5z M188.6,334.5
			c0,0.2-0.2,0.5-0.5,0.5s-0.5-0.2-0.5-0.5v-5c0-0.2,0.2-0.5,0.5-0.5s0.5,0.2,0.5,0.5V334.5L188.6,334.5z"/>
	</g>
</g>
<path class="st24" d="M277.8,453.4h3.8v3.7c0,0.6,0.4,0.9,0.9,0.9h1.9c0.6,0,0.9-0.4,0.9-0.9v-3.7h3.8c0.6,0,0.9-0.4,0.9-0.9v-1.9
	c0-0.6-0.4-0.9-0.9-0.9h-3.8V446c0-0.6-0.4-0.9-0.9-0.9h-1.9c-0.6,0-0.9,0.4-0.9,0.9v3.7h-3.8c-0.6,0-0.9,0.4-0.9,0.9v1.9
	C276.8,453,277.2,453.4,277.8,453.4z M289.2,466.3l-3.4-1.5l-9.4,4.3c-0.4,0.2-0.9,0.4-1.3,0.4c-0.6,0-0.9-0.2-1.3-0.4l-9.4-4.3
	l-3.4,1.5c-0.9,0.4-0.9,1.9,0,2.4l13.7,6.2c0.4,0.2,0.9,0.2,1.3,0l13.7-6.2C290.1,468.1,290.1,466.6,289.2,466.3z M260.7,461
	l13.7,6.2c0.4,0.2,0.9,0.2,1.3,0l10.7-4.9v-1.1c-0.9,0.2-1.9,0.4-2.8,0.4c-5.3,0-9.4-3.7-10.1-8.8l-12.6,5.6
	C259.7,459.2,259.7,460.7,260.7,461z"/>
<g>
	<g>
		<path class="st18" d="M312.6,453h-1H310l-0.2-0.6c-0.2-0.8-0.9-1.4-1.8-1.4h-2c-0.8,0-1.5,0.6-1.8,1.4L304,453h-1.6h-1
			c-0.2,0-0.5,0.2-0.5,0.5c0,0.2,0.2,0.5,0.5,0.5h0.6l0.4,7.6c0.1,0.8,0.7,1.4,1.5,1.4h6.1c0.8,0,1.4-0.6,1.5-1.4l0.4-7.6h0.6
			c0.2,0,0.5-0.2,0.5-0.5S312.8,453,312.6,453z M305.3,452.6c0.1-0.3,0.4-0.6,0.7-0.6h2c0.3,0,0.6,0.2,0.7,0.6l0.1,0.4H305
			L305.3,452.6z M305.6,460.5c0,0.2-0.2,0.5-0.5,0.5c-0.2,0-0.5-0.2-0.5-0.5v-5c0-0.2,0.2-0.5,0.5-0.5c0.2,0,0.5,0.2,0.5,0.5V460.5z
			 M307.6,460.5c0,0.2-0.2,0.5-0.5,0.5c-0.2,0-0.5-0.2-0.5-0.5v-5c0-0.2,0.2-0.5,0.5-0.5c0.2,0,0.5,0.2,0.5,0.5V460.5z M309.6,460.5
			c0,0.2-0.2,0.5-0.5,0.5c-0.2,0-0.5-0.2-0.5-0.5v-5c0-0.2,0.2-0.5,0.5-0.5c0.2,0,0.5,0.2,0.5,0.5V460.5L309.6,460.5z"/>
	</g>
</g>
<g>
	<path class="st1" d="M332,452c-3,0-5.6,2-6.8,4.9c0,0.1,0,0.2,0,0.3c1.2,2.9,3.8,4.9,6.8,4.9s5.6-2,6.8-4.9c0-0.1,0-0.2,0-0.3
		C337.6,454,335,452,332,452z M332,460.5c-1.7,0-3.1-1.6-3.1-3.5s1.4-3.5,3.1-3.5s3.1,1.6,3.1,3.5S333.7,460.5,332,460.5z"/>
	<ellipse class="st1" cx="332" cy="457" rx="2" ry="2.2"/>
</g>
<g>
	<path id="a_5_" class="st2" d="M361.2,462.3l3.3,3.3l3.3-3.3l0,0c0.4-0.4,1-0.4,1.4,0s0.4,1,0,1.4l-4,4c-0.4,0.4-1,0.4-1.4,0l-4-4
		l0,0c-0.4-0.4-0.4-1,0-1.4C360.2,461.9,360.8,461.9,361.2,462.3L361.2,462.3z"/>
</g>
<g>
	<path id="a_6_" class="st12" d="M391.2,462.3l3.3,3.3l3.3-3.3l0,0c0.4-0.4,1-0.4,1.4,0s0.4,1,0,1.4l-4,4c-0.4,0.4-1,0.4-1.4,0l-4-4
		l0,0c-0.4-0.4-0.4-1,0-1.4C390.2,461.9,390.8,461.9,391.2,462.3L391.2,462.3z"/>
</g>
<polygon class="st1" points="256,481 255,480 250.5,484.5 246,480 245,481 249.5,485.5 245,490 246,491 250.5,486.5 255,491 
	256,490 251.5,485.5 "/>
<path class="st2" d="M196.3,478.8h-6.1v-6.1c0-0.4-0.3-0.7-0.7-0.7s-0.7,0.3-0.7,0.7v6.1h-6.1c-0.4,0-0.7,0.3-0.7,0.7
	c0,0.4,0.3,0.7,0.7,0.7h6.1v6.1c0,0.4,0.3,0.7,0.7,0.7s0.7-0.3,0.7-0.7v-6.1h6.1c0.4,0,0.7-0.3,0.7-0.7S196.7,478.8,196.3,478.8z"/>
<g>
	<g>
		<path class="st2" d="M216.5,474.5h-1.3h-2l-0.2-0.8c-0.2-1-1.1-1.7-2.2-1.7h-2.5c-1,0-1.9,0.7-2.2,1.7l-0.2,0.8h-2h-1.3
			c-0.3,0-0.6,0.3-0.6,0.6c0,0.3,0.3,0.6,0.6,0.6h0.7l0.5,9.5c0.1,1,0.9,1.8,1.9,1.8h7.6c1,0,1.8-0.8,1.9-1.8l0.5-9.5h0.7
			c0.3,0,0.6-0.3,0.6-0.6S216.8,474.5,216.5,474.5z M207.4,474c0.1-0.4,0.5-0.7,0.9-0.7h2.5c0.4,0,0.8,0.3,0.9,0.7l0.1,0.5h-4.7
			L207.4,474z M207.7,483.9c0,0.3-0.3,0.6-0.6,0.6s-0.6-0.3-0.6-0.6v-6.2c0-0.3,0.3-0.6,0.6-0.6s0.6,0.3,0.6,0.6V483.9z
			 M210.2,483.9c0,0.3-0.3,0.6-0.6,0.6s-0.6-0.3-0.6-0.6v-6.2c0-0.3,0.3-0.6,0.6-0.6s0.6,0.3,0.6,0.6V483.9z M212.7,483.9
			c0,0.3-0.3,0.6-0.6,0.6s-0.6-0.3-0.6-0.6v-6.2c0-0.3,0.3-0.6,0.6-0.6s0.6,0.3,0.6,0.6V483.9L212.7,483.9z"/>
	</g>
</g>
<path class="st2" d="M235.9,474.1l-1.1-1.1c-0.6-0.6-1.8-0.6-2.5,0l-9.6,9.6l-0.3,3.1c0,0.4,0.3,0.8,0.8,0.8l3.1-0.3l9.6-9.6
	C236.7,475.9,236.7,474.8,235.9,474.1L235.9,474.1z M227,482.1c0.2,0.2,0.4,0.2,0.6,0l4.9-5l0.9,0.9l-6.1,6.2v-1H226v-1.3h-1
	l6.1-6.2l0.9,0.9l-4.9,5C226.8,481.6,226.8,482,227,482.1L227,482.1z M225.9,485.4l-1.6,0.2l-0.9-0.9l0.2-1.6l0.5-0.5h1v1.3h1.3v1
	L225.9,485.4z M235.3,476l-1.4,1.4l-2.3-2.3l1.4-1.4c0.3-0.3,0.9-0.3,1.2,0l1.1,1.1C235.7,475,235.7,475.6,235.3,476L235.3,476z"/>
<path class="st30" d="M65,402.3v1.4c0,1.3-3.1,2.3-7,2.3s-7-1-7-2.3v-1.4c0-1.3,3.1-2.3,7-2.3S65,401,65,402.3z M65,405.5v3.2
	c0,1.3-3.1,2.3-7,2.3s-7-1-7-2.3v-3.2c1.5,1,4.3,1.5,7,1.5S63.5,406.5,65,405.5z M65,410.5v3.2c0,1.3-3.1,2.3-7,2.3s-7-1-7-2.3v-3.2
	c1.5,1,4.3,1.5,7,1.5S63.5,411.5,65,410.5z"/>
<path class="st2" d="M85,402.3v1.4c0,1.3-3.1,2.3-7,2.3s-7-1-7-2.3v-1.4c0-1.3,3.1-2.3,7-2.3S85,401,85,402.3z M85,405.5v3.2
	c0,1.3-3.1,2.3-7,2.3s-7-1-7-2.3v-3.2c1.5,1,4.3,1.5,7,1.5S83.5,406.5,85,405.5z M85,410.5v3.2c0,1.3-3.1,2.3-7,2.3s-7-1-7-2.3v-3.2
	c1.5,1,4.3,1.5,7,1.5S83.5,411.5,85,410.5z"/>
<circle class="st19" cx="269.5" cy="489.5" r="7.5"/>
<g>
	<rect x="268.5" y="485.2" class="st1" width="2.2" height="5.3"/>
	<rect x="268.5" y="491.7" class="st1" width="2.2" height="2.2"/>
</g>
<g>
	<g>
		<path class="st18" d="M296.5,484.5h-1.3h-2l-0.2-0.8c-0.2-1-1.1-1.7-2.2-1.7h-2.5c-1,0-1.9,0.7-2.2,1.7l-0.2,0.8h-2h-1.3
			c-0.3,0-0.6,0.3-0.6,0.6c0,0.3,0.3,0.6,0.6,0.6h0.7l0.5,9.5c0.1,1,0.9,1.8,1.9,1.8h7.6c1,0,1.8-0.8,1.9-1.8l0.5-9.5h0.7
			c0.3,0,0.6-0.3,0.6-0.6S296.8,484.5,296.5,484.5z M287.4,484c0.1-0.4,0.5-0.7,0.9-0.7h2.5c0.4,0,0.8,0.3,0.9,0.7l0.1,0.5h-4.7
			L287.4,484z M287.7,493.9c0,0.3-0.3,0.6-0.6,0.6c-0.3,0-0.6-0.3-0.6-0.6v-6.2c0-0.3,0.3-0.6,0.6-0.6c0.3,0,0.6,0.3,0.6,0.6V493.9z
			 M290.2,493.9c0,0.3-0.3,0.6-0.6,0.6c-0.3,0-0.6-0.3-0.6-0.6v-6.2c0-0.3,0.3-0.6,0.6-0.6c0.3,0,0.6,0.3,0.6,0.6V493.9z
			 M292.7,493.9c0,0.3-0.3,0.6-0.6,0.6c-0.3,0-0.6-0.3-0.6-0.6v-6.2c0-0.3,0.3-0.6,0.6-0.6c0.3,0,0.6,0.3,0.6,0.6V493.9L292.7,493.9
			z"/>
	</g>
</g>
<path class="st2" d="M316.9,482.5l-0.4-0.4c-0.1-0.1-0.3-0.1-0.4,0l-2.5,2.5c-1.1-0.9-2.6-1.5-4.1-1.5c-3.6,0-6.4,2.9-6.4,6.4
	c0,1.6,0.6,3,1.5,4.1l-2.5,2.5c-0.1,0.1-0.1,0.3,0,0.4l0.4,0.4c0.1,0.1,0.3,0.1,0.4,0l2.5-2.5c1.1,0.9,2.6,1.5,4.1,1.5
	c3.6,0,6.4-2.9,6.4-6.4c0-1.6-0.6-3-1.5-4.1l2.5-2.5C317,482.7,317,482.6,316.9,482.5z M304.1,489.5c0-3,2.4-5.4,5.4-5.4
	c1.3,0,2.4,0.5,3.4,1.2l-7.5,7.5C304.6,491.9,304.1,490.8,304.1,489.5z M314.9,489.5c0,3-2.4,5.4-5.4,5.4c-1.3,0-2.4-0.5-3.4-1.2
	l7.5-7.5C314.4,487.1,314.9,488.2,314.9,489.5z"/>
<path class="st18" d="M336.9,482.5l-0.4-0.4c-0.1-0.1-0.3-0.1-0.4,0l-2.5,2.5c-1.1-0.9-2.6-1.5-4.1-1.5c-3.6,0-6.4,2.9-6.4,6.4
	c0,1.6,0.6,3,1.5,4.1l-2.5,2.5c-0.1,0.1-0.1,0.3,0,0.4l0.4,0.4c0.1,0.1,0.3,0.1,0.4,0l2.5-2.5c1.1,0.9,2.6,1.5,4.1,1.5
	c3.6,0,6.4-2.9,6.4-6.4c0-1.6-0.6-3-1.5-4.1l2.5-2.5C337,482.7,337,482.6,336.9,482.5z M324.1,489.5c0-3,2.4-5.4,5.4-5.4
	c1.3,0,2.4,0.5,3.4,1.2l-7.5,7.5C324.6,491.9,324.1,490.8,324.1,489.5z M334.9,489.5c0,3-2.4,5.4-5.4,5.4c-1.3,0-2.4-0.5-3.4-1.2
	l7.5-7.5C334.4,487.1,334.9,488.2,334.9,489.5z"/>
<path class="st2" d="M349,484.3V480h-6.3c-0.4,0-0.8,0.3-0.8,0.8v14.5c0,0.4,0.3,0.8,0.8,0.8h10.5c0.4,0,0.8-0.3,0.8-0.8V485h-4.3
	C349.3,485,349,484.7,349,484.3z M351,491h-2v2.5c0,0.3-0.2,0.5-0.5,0.5h-1c-0.3,0-0.5-0.2-0.5-0.5V491h-2c-0.4,0-0.7-0.5-0.4-0.9
	l3-3c0.2-0.2,0.5-0.2,0.8,0l3,3C351.7,490.5,351.5,491,351,491z M353.8,483.3l-3.1-3.1c-0.1-0.1-0.3-0.2-0.5-0.2H350v4h4v-0.2
	C354,483.6,353.9,483.4,353.8,483.3z"/>
<path class="st12" d="M369,484.3V480h-6.3c-0.4,0-0.8,0.3-0.8,0.8v14.5c0,0.4,0.3,0.8,0.8,0.8h10.5c0.4,0,0.8-0.3,0.8-0.8V485h-4.3
	C369.3,485,369,484.7,369,484.3z M371,491h-2v2.5c0,0.3-0.2,0.5-0.5,0.5h-1c-0.3,0-0.5-0.2-0.5-0.5V491h-2c-0.4,0-0.7-0.5-0.4-0.9
	l3-3c0.2-0.2,0.5-0.2,0.8,0l3,3C371.7,490.5,371.5,491,371,491z M373.8,483.3l-3.1-3.1c-0.1-0.1-0.3-0.2-0.5-0.2H370v4h4v-0.2
	C374,483.6,373.9,483.4,373.8,483.3z"/>
<g id="icons_3_">
	<path id="share_3_" class="st2" d="M251.2,101l-5.9-5.3c-0.5-0.5-1,0-1,0.7V99c-4.2,0-7.8,2.5-9.5,6c-0.7,1.2-1,2.3-1.3,3.6
		c-0.2,0.9,1.2,1.3,1.7,0.5c2-3,5.3-5.1,9.1-5.1v2.9c0,0.7,0.6,1.2,1,0.7l5.9-5.3C251.6,102,251.6,101.4,251.2,101z"/>
</g>
<g id="icons_2_">
	<path id="share_2_" class="st12" d="M251.2,126l-5.9-5.3c-0.5-0.5-1,0-1,0.7v2.6c-4.2,0-7.8,2.5-9.5,6c-0.7,1.2-1,2.3-1.3,3.6
		c-0.2,0.9,1.2,1.3,1.7,0.5c2-3,5.3-5.1,9.1-5.1v2.9c0,0.7,0.6,1.2,1,0.7l5.9-5.3C251.6,127,251.6,126.4,251.2,126z"/>
</g>
<path class="st12" d="M105,402.3v1.4c0,1.3-3.1,2.3-7,2.3s-7-1-7-2.3v-1.4c0-1.3,3.1-2.3,7-2.3S105,401,105,402.3z M105,405.5v3.2
	c0,1.3-3.1,2.3-7,2.3s-7-1-7-2.3v-3.2c1.5,1,4.3,1.5,7,1.5S103.5,406.5,105,405.5z M105,410.5v3.2c0,1.3-3.1,2.3-7,2.3s-7-1-7-2.3
	v-3.2c1.5,1,4.3,1.5,7,1.5S103.5,411.5,105,410.5z"/>
<path class="st12" d="M66.3,428.8h-6.1v-6.1c0-0.4-0.3-0.7-0.7-0.7s-0.7,0.3-0.7,0.7v6.1h-6.1c-0.4,0-0.7,0.3-0.7,0.7
	c0,0.4,0.3,0.7,0.7,0.7h6.1v6.1c0,0.4,0.3,0.7,0.7,0.7s0.7-0.3,0.7-0.7v-6.1h6.1c0.4,0,0.7-0.3,0.7-0.7S66.7,428.8,66.3,428.8z"/>
<path class="st12" d="M85.9,424.1l-1.1-1.1c-0.6-0.6-1.8-0.6-2.5,0l-9.5,9.6l-0.3,3.1c0,0.4,0.3,0.8,0.8,0.8l3.1-0.3l9.5-9.6
	C86.7,425.9,86.7,424.8,85.9,424.1L85.9,424.1z M77.1,432.1c0.2,0.2,0.4,0.2,0.6,0l4.9-5l0.9,0.9l-6.1,6.2v-1h-1.3v-1.3h-1l6.1-6.2
	l0.9,0.9l-4.9,5C76.9,431.6,76.9,432,77.1,432.1L77.1,432.1z M76,435.4l-1.6,0.2l-0.9-0.9l0.2-1.6l0.5-0.5h1v1.3h1.3v1L76,435.4z
	 M85.3,426l-1.4,1.4l-2.3-2.3l1.4-1.4c0.3-0.3,0.9-0.3,1.2,0l1.1,1.1C85.7,425,85.7,425.6,85.3,426L85.3,426z"/>
<path class="st12" d="M106.9,422.5l-0.4-0.4c-0.1-0.1-0.3-0.1-0.4,0l-2.5,2.5c-1.1-0.9-2.6-1.5-4.1-1.5c-3.6,0-6.4,2.9-6.4,6.4
	c0,1.6,0.6,3,1.5,4.1l-2.5,2.5c-0.1,0.1-0.1,0.3,0,0.4l0.4,0.4c0.1,0.1,0.3,0.1,0.4,0l2.5-2.5c1.1,0.9,2.6,1.5,4.1,1.5
	c3.6,0,6.4-2.9,6.4-6.4c0-1.6-0.6-3-1.5-4.1l2.5-2.5C107,422.7,107,422.6,106.9,422.5z M94.1,429.5c0-3,2.4-5.4,5.4-5.4
	c1.3,0,2.4,0.5,3.4,1.2l-7.5,7.5C94.6,431.9,94.1,430.8,94.1,429.5z M104.9,429.5c0,3-2.4,5.4-5.4,5.4c-1.3,0-2.4-0.5-3.4-1.2
	l7.5-7.5C104.4,427.1,104.9,428.2,104.9,429.5z"/>
<path class="st1" d="M92.8,468.5c0.1,0,0.2,0,0.4,0c0.1-0.2,0.1-0.4,0-0.7c-0.1-0.4-0.2-0.7-0.5-0.6c-0.3,0-0.3,0.4-0.2,0.8
	C92.6,468.2,92.7,468.4,92.8,468.5L92.8,468.5z M90.6,468.8c0.2,0.1,0.3,0.1,0.3,0.1c0.1-0.1-0.1-0.4-0.5-0.5
	c-0.4-0.2-0.9-0.1-1.2,0.1c-0.1,0.1-0.2,0.2-0.2,0.3c0,0.1,0.4-0.1,0.9-0.1C90.2,468.7,90.5,468.8,90.6,468.8L90.6,468.8z M90.3,469
	c-0.4,0.1-0.6,0.3-0.5,0.4c0,0,0,0,0.2,0c0.2-0.1,0.5-0.1,0.8-0.1c0.1,0,0.2,0,0.2,0C90.9,469.2,90.7,469,90.3,469L90.3,469z
	 M92.4,469.7c0.1-0.3-0.4-0.6-0.6-0.3S92.3,470,92.4,469.7L92.4,469.7z M93.1,468.9c-0.3,0-0.3,0.6,0,0.6S93.4,468.9,93.1,468.9
	L93.1,468.9z M84.3,472.1c-0.1,0-0.2,0.1-0.3-0.1c-0.2-0.3,0.4-0.8,0.1-1.4c-0.4-0.7-1.1-0.5-1.4-0.2c-0.4,0.4-0.4,0.9-0.2,1
	c0.2,0,0.2-0.3,0.3-0.5c0.2-0.2,0.5-0.3,0.7-0.2l0,0c0.5,0.3,0.1,0.7,0.1,1.1c0.1,0.7,0.7,0.7,0.9,0.4v-0.1
	C84.4,472.1,84.4,472,84.3,472.1L84.3,472.1z M96.3,471.4c-0.1-0.5-0.1-0.4-0.3-0.8c0.1-0.1,0.6-1-0.1-1.7c-0.4-0.4-1.4-0.7-1.7-0.7
	c-0.1-0.5,0.2-2.4-0.9-3.3c0.8-0.9,1.4-1.8,1.4-2.6c0-1.6-1.9-2-4.3-1.1l-0.5,0.2l-0.9-0.9c-2.7-2.4-11.2,7.1-8.5,9.3l0.6,0.5
	c-0.2,0.4-0.2,0.9-0.2,1.3c0.1,1.3,1.4,2.4,2.7,2.4c2.3,5.3,10.8,5.3,13,0.1c0.1-0.2,0.4-1,0.4-1.7S96.6,471.4,96.3,471.4
	L96.3,471.4z M83.6,473.3c-0.9,0-1.9-0.8-2-1.8c-0.2-2.5,3-3,3.4-0.5C85.2,472.2,84.8,473.3,83.6,473.3L83.6,473.3z M82.9,468.7
	c-0.6,0.1-1.1,0.5-1.5,0.9c-0.2-0.2-0.6-0.5-0.6-0.6c-0.5-1,0.6-2.9,1.3-4c1.9-2.7,4.9-4.7,6.2-4.4c0.2,0.1,1,0.9,1,0.9
	s-1.4,0.8-2.6,1.8C85,464.7,83.7,466.7,82.9,468.7L82.9,468.7z M92.5,472.8c0,0-1.4,0.2-2.8-0.3c0.2-0.8,1.1,0.2,3.9-0.6
	c0.6-0.2,1.4-0.5,2.1-1c0.1,0.3,0.2,0.6,0.3,1c0.1,0,0.6,0,0.5,0.7c-0.1,0.8-0.5,1.4-1,2c-0.4,0.4-0.8,0.7-1.3,0.9
	c-0.3,0.1-0.5,0.3-0.8,0.3c-2.2,0.7-4.4-0.1-5.1-1.7c-0.1-0.1-0.1-0.3-0.1-0.4c-0.3-1.1,0-2.4,0.8-3.2c0-0.1,0.1-0.1,0.1-0.2
	s0-0.1-0.1-0.2c-0.3-0.4-1.3-1.1-1.1-2.4c0.1-1,1-1.6,1.8-1.6h0.2c0.3,0,0.6,0.1,0.9,0.1c0.5,0,0.9,0,1.4-0.5
	c0.2-0.1,0.3-0.3,0.5-0.3s0.4,0,0.5,0.1c0.4,0.3,0.5,0.9,0.5,1.4c0,0.3,0,0.9,0.1,1.1c0,0.4,0.1,0.5,0.4,0.6c0.1,0,0.2,0.1,0.4,0.1
	c0.5,0.1,0.8,0.3,1,0.5c0.1,0.1,0.2,0.2,0.2,0.4c0.1,0.5-0.4,1-1.5,1.5c-1.9,0.9-3.8,0.6-4,0.5c-0.8-0.1-1.3,0.9-0.8,1.6
	c0.9,1.3,4.9,0.8,6.1-0.9c0,0,0-0.1,0,0c-1.7,1.1-3.9,1.5-5.2,1c-0.2-0.1-0.6-0.3-0.6-0.7c1.8,0.5,2.9,0,2.9,0
	S92.6,472.8,92.5,472.8L92.5,472.8z M86.4,465c0.7-0.8,1.5-1.5,2.2-1.8l0,0l0,0c-0.1,0.1-0.2,0.3-0.2,0.5l0,0l0,0
	c0.5-0.3,1.3-0.7,2-0.7l0,0l0,0c-0.1,0.1-0.2,0.2-0.3,0.3l0,0l0,0c0.5,0,1.2,0.2,1.6,0.4v0.1C89,463.4,86.9,464.8,86.4,465
	C86.4,465.1,86.4,465.1,86.4,465C86.4,465.1,86.4,465.1,86.4,465L86.4,465z"/>
<path class="st1" d="M37.8,461H20.3c-0.1,0-0.3,0.1-0.3,0.3v0.5c0,0.1,0.1,0.3,0.3,0.3H21v9c0,0.6,0.4,1,1,1h6.5v1.5l-2.7,2.7
	c-0.1,0.1-0.1,0.3,0,0.4l0.4,0.4c0.1,0.1,0.3,0.1,0.4,0l0,0l2.5-2.5l2.5,2.5c0.1,0.1,0.3,0.1,0.4,0l0,0l0.4-0.4
	c0.1-0.1,0.1-0.3,0-0.4l-2.7-2.7V472H36c0.6,0,1-0.4,1-1v-9h0.8c0.1,0,0.3-0.1,0.3-0.3v-0.5C38,461.1,37.9,461,37.8,461z M36,471H22
	v-9h14V471z"/>
<path class="st1" d="M55,470c-0.3,0-0.6,0.1-0.9,0.2c0.6-0.5,0.9-1.3,0.9-2.2c0-1.7-1.3-3-3-3c-0.3,0-0.6,0.1-0.9,0.2
	c0.6-0.5,0.9-1.3,0.9-2.2c0-1.7-1.3-3-3-3s-3,1.3-3,3c0,0.9,0.4,1.6,0.9,2.2c-0.3-0.1-0.6-0.2-0.9-0.2c-1.7,0-3,1.3-3,3
	c0,0.9,0.4,1.6,0.9,2.2c-0.3-0.1-0.6-0.2-0.9-0.2c-1.7,0-3,1.3-3,3s1.3,3,3,3s3-1.3,3-3c0-0.9-0.4-1.6-0.9-2.2
	c0.3,0.1,0.6,0.2,0.9,0.2s0.6-0.1,0.9-0.2c-0.6,0.5-0.9,1.3-0.9,2.2c0,1.7,1.3,3,3,3s3-1.3,3-3c0-0.9-0.4-1.6-0.9-2.2
	c0.3,0.1,0.6,0.2,0.9,0.2s0.6-0.1,0.9-0.2c-0.6,0.5-0.9,1.3-0.9,2.2c0,1.7,1.3,3,3,3s3-1.3,3-3S56.7,470,55,470z M49,461
	c1.1,0,2,0.9,2,2s-0.9,2-2,2s-2-0.9-2-2S47.9,461,49,461z M49.9,470.2c-0.3-0.1-0.6-0.2-0.9-0.2s-0.6,0.1-0.9,0.2
	c0.6-0.5,0.9-1.3,0.9-2.2s-0.4-1.6-0.9-2.2c0.3,0.1,0.6,0.2,0.9,0.2s0.6-0.1,0.9-0.2c-0.6,0.5-0.9,1.3-0.9,2.2
	S49.4,469.6,49.9,470.2z M43,475c-1.1,0-2-0.9-2-2s0.9-2,2-2s2,0.9,2,2S44.1,475,43,475z M46,470c-1.1,0-2-0.9-2-2s0.9-2,2-2
	s2,0.9,2,2S47.1,470,46,470z M49,475c-1.1,0-2-0.9-2-2s0.9-2,2-2s2,0.9,2,2S50.1,475,49,475z M52,470c-1.1,0-2-0.9-2-2s0.9-2,2-2
	s2,0.9,2,2S53.1,470,52,470z M55,475c-1.1,0-2-0.9-2-2s0.9-2,2-2s2,0.9,2,2S56.1,475,55,475z"/>
<path class="st1" d="M76.9,460H61.1c-1,0-1.5,1.2-0.8,1.9l6.4,6.4v6.6c0,0.3,0.1,0.6,0.4,0.8l2.3,2c0.7,0.6,1.9,0.1,1.9-0.8v-8.5
	l6.4-6.4C78.4,461.2,77.9,460,76.9,460z M70.1,467.9v9l-2.3-2v-7l-6.8-6.8h15.8L70.1,467.9z"/>
<path class="st2" d="M16,237.2c0-4.4-3.5-7.2-8-7.2c-4.4,0-8,3.6-8,8c0,4.4,3.6,8,8,8c1.7,0,3.4-0.6,4.7-1.6
	c0.2-0.1,0.2-0.4,0.1-0.6l-0.5-0.6c-0.1-0.2-0.4-0.2-0.5-0.1c-1.1,0.8-2.4,1.2-3.8,1.2c-3.6,0-6.5-2.9-6.5-6.5s2.9-6.5,6.5-6.5
	c3.5,0,6.5,2.1,6.5,5.7c0,2-1.4,3.2-2.7,3.2c-0.6,0-0.6-0.4-0.5-1l0.9-4.8c0-0.2-0.1-0.5-0.4-0.5h-1.3c-0.2,0-0.3,0.1-0.4,0.3
	c0,0.2-0.1,0.3-0.1,0.5c-0.4-0.6-1.2-1-2.1-1c-2.3,0-4.4,2-4.4,4.9c0,2,1.1,3.3,3,3.3c1,0,2-0.5,2.6-1.4c0.1,1,0.9,1.2,1.9,1.2
	C14.3,242,16,239.9,16,237.2z M7.2,240.4c-0.9,0-1.5-0.6-1.5-1.7c0-1.9,1.3-3,2.4-3c1,0,1.5,0.7,1.5,1.7
	C9.6,238.8,8.5,240.4,7.2,240.4z"/>
<path class="st12" d="M16,257.2c0-4.4-3.5-7.2-8-7.2c-4.4,0-8,3.6-8,8c0,4.4,3.6,8,8,8c1.7,0,3.4-0.6,4.7-1.6
	c0.2-0.1,0.2-0.4,0.1-0.6l-0.5-0.6c-0.1-0.2-0.4-0.2-0.5-0.1c-1.1,0.8-2.4,1.2-3.8,1.2c-3.6,0-6.5-2.9-6.5-6.5
	c0-3.6,2.9-6.5,6.5-6.5c3.5,0,6.5,2.1,6.5,5.7c0,2-1.4,3.2-2.7,3.2c-0.6,0-0.6-0.4-0.5-1l0.9-4.8c0-0.2-0.1-0.5-0.4-0.5h-1.3
	c-0.2,0-0.3,0.1-0.4,0.3c0,0.2-0.1,0.3-0.1,0.5c-0.4-0.6-1.2-1-2.1-1c-2.3,0-4.4,2-4.4,4.9c0,2,1.1,3.3,3,3.3c1,0,2-0.5,2.6-1.4
	c0.1,1,0.9,1.2,1.9,1.2C14.3,262,16,259.9,16,257.2z M7.2,260.4c-0.9,0-1.5-0.6-1.5-1.7c0-1.9,1.3-3,2.4-3c1,0,1.5,0.7,1.5,1.7
	C9.6,258.8,8.5,260.4,7.2,260.4z"/>
<path class="st24" d="M16,277.2c0-4.4-3.5-7.2-8-7.2c-4.4,0-8,3.6-8,8c0,4.4,3.6,8,8,8c1.7,0,3.4-0.6,4.7-1.6
	c0.2-0.1,0.2-0.4,0.1-0.6l-0.5-0.6c-0.1-0.2-0.4-0.2-0.5-0.1c-1.1,0.8-2.4,1.2-3.8,1.2c-3.6,0-6.5-2.9-6.5-6.5s2.9-6.5,6.5-6.5
	c3.5,0,6.5,2.1,6.5,5.7c0,2-1.4,3.2-2.7,3.2c-0.6,0-0.6-0.4-0.5-1l0.9-4.8c0-0.2-0.1-0.5-0.4-0.5h-1.3c-0.2,0-0.3,0.1-0.4,0.3
	c0,0.2-0.1,0.3-0.1,0.5c-0.4-0.6-1.2-1-2.1-1c-2.3,0-4.4,2-4.4,4.9c0,2,1.1,3.3,3,3.3c1,0,2-0.5,2.6-1.4c0.1,1,0.9,1.2,1.9,1.2
	C14.3,282,16,279.9,16,277.2z M7.2,280.4c-0.9,0-1.5-0.6-1.5-1.7c0-1.9,1.3-3,2.4-3c1,0,1.5,0.7,1.5,1.7
	C9.6,278.8,8.5,280.4,7.2,280.4z"/>
</svg>
